{
.appVersion = "3112";
.formatVersion = 3;
axes = (
{
name = Weight;
tag = wght;
}
);
date = "2022-05-27 18:49:23 +0000";
familyName = "26F Galaxy Sans";
fontMaster = (
{
axesValues = (
50
);
iconName = Light;
id = m01;
metricValues = (
{
pos = 1900;
},
{
pos = 1400;
},
{
pos = 600;
},
{
},
{
pos = -400;
}
);
name = Hairline;
stemValues = (
50
);
},
{
axesValues = (
120
);
id = "19FA402B-9607-46D9-AAD6-815AECBA5B6B";
metricValues = (
{
pos = 1900;
},
{
pos = 1400;
},
{
pos = 1000;
},
{
},
{
pos = -400;
}
);
name = Regular;
stemValues = (
120
);
userData = {
GSOffsetAutoStroke = 1;
GSOffsetCapStyle = 1;
GSOffsetHorizontal = 60;
GSOffsetMakeStroke = 1;
GSOffsetProportional = 1;
GSOffsetVertical = 10;
};
},
{
axesValues = (
300
);
iconName = Bold;
id = "FF87E3F2-B049-41CB-BF2F-09DB15105515";
metricValues = (
{
pos = 1900;
},
{
pos = 1400;
},
{
pos = 600;
},
{
},
{
pos = -400;
}
);
name = Black;
stemValues = (
300
);
}
);
glyphs = (
{
color = 4;
glyphname = A;
kernLeft = A;
kernRight = A;
lastChange = "2022-05-29 23:17:20 +0000";
layers = (
{
anchors = (
{
name = bottom;
pos = (696,0);
},
{
name = ogonek;
pos = (1253,10);
},
{
name = top;
pos = (696,1400);
}
);
layerId = m01;
shapes = (
{
attr = {
fillColor = (0,255);
lineCapEnd = "2";
lineCapStart = "2";
strokeHeight = 120;
strokeWidth = 120;
};
closed = 0;
nodes = (
(702,1390,l),
(1293,10,l)
);
},
{
attr = {
fillColor = (0,255);
lineCapEnd = "2";
lineCapStart = "2";
strokeHeight = 120;
strokeWidth = 120;
};
closed = 0;
nodes = (
(395,711,l),
(99,10,l)
);
}
);
width = 1392;
},
{
anchors = (
{
name = bottom;
pos = (706,0);
},
{
name = ogonek;
pos = (1283,-2);
},
{
name = top;
pos = (706,1400);
}
);
layerId = "19FA402B-9607-46D9-AAD6-815AECBA5B6B";
name = Regular;
shapes = (
{
attr = {
fillColor = (0,255);
lineCapEnd = "2";
lineCapStart = "2";
strokeHeight = 120;
strokeWidth = 120;
};
closed = 0;
nodes = (
(712,1390,l),
(1303,10,l)
);
},
{
attr = {
fillColor = (0,255);
lineCapEnd = "2";
lineCapStart = "2";
strokeHeight = 120;
strokeWidth = 120;
};
closed = 0;
nodes = (
(405,711,l),
(109,10,l)
);
}
);
width = 1412;
},
{
anchors = (
{
name = bottom;
pos = (696,0);
},
{
name = ogonek;
pos = (1253,10);
},
{
name = top;
pos = (696,1400);
}
);
layerId = "FF87E3F2-B049-41CB-BF2F-09DB15105515";
name = Black;
width = 1392;
}
);
unicode = (65,97);
},
{
color = 5;
glyphname = AE;
kernLeft = A;
kernRight = E;
lastChange = "2022-05-29 23:17:13 +0000";
layers = (
{
layerId = m01;
width = 2470;
},
{
layerId = "19FA402B-9607-46D9-AAD6-815AECBA5B6B";
shapes = (
{
attr = {
fillColor = (0,255);
lineCapEnd = 2;
lineCapStart = 2;
strokeHeight = 120;
strokeWidth = 120;
};
closed = 0;
nodes = (
(717,1386,l),
(108,14,l)
);
},
{
attr = {
fillColor = (0,255);
lineCapEnd = "3";
lineCapStart = "2";
strokeHeight = 120;
strokeWidth = 120;
};
closed = 0;
nodes = (
(897,760,l),
(897,120,l)
);
},
{
attr = {
fillColor = (0,255);
lineCapEnd = "1";
lineCapStart = "2";
strokeHeight = 120;
strokeWidth = 120;
};
closed = 0;
nodes = (
(1594,1340,l),
(697,1340,l)
);
},
{
attr = {
fillColor = (0,255);
lineCapEnd = "2";
lineCapStart = "1";
strokeHeight = 120;
strokeWidth = 120;
};
closed = 0;
nodes = (
(897,60,l),
(1594,60,l)
);
},
{
attr = {
fillColor = (0,255);
lineCapEnd = "2";
lineCapStart = "2";
strokeHeight = 120;
strokeWidth = 120;
};
closed = 0;
nodes = (
(1593,700,l),
(1170,700,l)
);
}
);
width = 1680;
},
{
layerId = "FF87E3F2-B049-41CB-BF2F-09DB15105515";
width = 600;
}
);
metricLeft = A;
metricRight = E;
unicode = (198,230);
},
{
color = 4;
glyphname = B;
kernLeft = I;
kernRight = B;
lastChange = "2022-05-29 23:17:20 +0000";
layers = (
{
anchors = (
{
name = bottom;
pos = (620,0);
},
{
name = center;
pos = (620,700);
},
{
name = top;
pos = (620,1400);
}
);
layerId = m01;
shapes = (
{
attr = {
fillColor = (0,255);
lineCapEnd = "2";
lineCapStart = "2";
strokeHeight = 120;
strokeWidth = 120;
};
closed = 0;
nodes = (
(160,1000,l),
(160,0,l)
);
},
{
attr = {
fillColor = (0,255);
lineCapEnd = "2";
lineCapStart = "1";
strokeHeight = 120;
strokeWidth = 120;
};
closed = 0;
nodes = (
(160,1340,l),
(710,1340,ls),
(887,1340,o),
(1030,1197,o),
(1030,1020,cs),
(1030,843,o),
(887,700,o),
(710,700,cs),
(682,700,l)
);
},
{
attr = {
fillColor = (0,255);
lineCapEnd = "2";
lineCapStart = "2";
strokeHeight = 120;
strokeWidth = 120;
};
closed = 0;
nodes = (
(550,60,l),
(810,60,ls),
(987,60,o),
(1130,203,o),
(1130,380,cs),
(1130,557,o),
(987,700,o),
(810,700,cs),
(440,700,l)
);
}
);
width = 1240;
},
{
anchors = (
{
name = bottom;
pos = (645,0);
},
{
name = center;
pos = (645,700);
},
{
name = top;
pos = (595,1400);
}
);
layerId = "19FA402B-9607-46D9-AAD6-815AECBA5B6B";
name = Regular;
shapes = (
{
attr = {
fillColor = (0,255);
lineCapEnd = "2";
lineCapStart = "2";
strokeHeight = 120;
strokePos = 1;
strokeWidth = 120;
};
closed = 0;
nodes = (
(125,1000,l),
(125,0,l)
);
},
{
attr = {
fillColor = (0,255);
lineCapEnd = "2";
lineCapStart = "1";
strokeHeight = 120;
strokePos = 1;
strokeWidth = 120;
};
closed = 0;
nodes = (
(185,1280,l),
(735,1280,ls),
(879,1280,o),
(995,1164,o),
(995,1020,cs),
(995,876,o),
(879,760,o),
(735,760,cs),
(465,760,l)
);
},
{
attr = {
fillColor = (0,255);
lineCapEnd = "2";
lineCapStart = "2";
strokeHeight = 120;
strokePos = 0;
strokeWidth = 120;
};
closed = 0;
nodes = (
(575,120,l),
(835,120,ls),
(979,120,o),
(1095,236,o),
(1095,380,cs),
(1095,524,o),
(979,640,o),
(835,640,cs),
(655,640,l)
);
}
);
width = 1278;
},
{
anchors = (
{
name = bottom;
pos = (1820,0);
},
{
name = center;
pos = (1820,700);
},
{
name = top;
pos = (1820,1400);
}
);
layerId = "FF87E3F2-B049-41CB-BF2F-09DB15105515";
width = 3040;
}
);
metricLeft = H;
metricRight = "=H/2";
unicode = (66,98);
},
{
color = 4;
glyphname = C;
kernLeft = O;
kernRight = C;
lastChange = "2022-05-29 23:17:20 +0000";
layers = (
{
anchors = (
{
name = bottom;
pos = (551,0);
},
{
name = top;
pos = (551,1400);
}
);
layerId = m01;
shapes = (
{
closed = 1;
nodes = (
(1034,0,o),
(1061,27,o),
(1061,60,cs),
(1061,93,o),
(1034,120,o),
(1001,120,cs),
(968,120,o),
(941,93,o),
(941,60,cs),
(941,27,o),
(968,0,o),
(1001,0,cs)
);
},
{
attr = {
fillColor = (0,255);
lineCapEnd = "2";
lineCapStart = "2";
strokeHeight = 120;
strokeWidth = 120;
};
closed = 0;
nodes = (
(1054,1340,l),
(700,1340,ls),
(347,1340,o),
(60,1053,o),
(60,700,cs),
(60,347,o),
(347,60,o),
(700,60,c)
);
}
);
width = 1161;
},
{
anchors = (
{
name = bottom;
pos = (641,0);
},
{
name = top;
pos = (701,1400);
}
);
layerId = "19FA402B-9607-46D9-AAD6-815AECBA5B6B";
name = Regular;
shapes = (
{
closed = 1;
nodes = (
(1058,1400,o),
(1031,1373,o),
(1031,1340,cs),
(1031,1307,o),
(1058,1280,o),
(1091,1280,cs),
(1124,1280,o),
(1151,1307,o),
(1151,1340,cs),
(1151,1373,o),
(1124,1400,o),
(1091,1400,cs)
);
},
{
attr = {
fillColor = (0,255);
lineCapEnd = 1;
lineCapStart = "2";
strokeHeight = 120;
strokePos = 0;
strokeWidth = 120;
};
closed = 0;
nodes = (
(790,1280,l),
(470,1280,o),
(210,1020,o),
(210,700,cs),
(210,380,o),
(470,120,o),
(790,120,cs),
(1144,120,l)
);
}
);
width = 1254;
},
{
anchors = (
{
name = bottom;
pos = (611,0);
},
{
name = top;
pos = (611,1400);
}
);
layerId = "FF87E3F2-B049-41CB-BF2F-09DB15105515";
width = 1221;
}
);
metricLeft = O;
unicode = (67,99);
},
{
color = 4;
glyphname = D;
kernLeft = I;
kernRight = O;
lastChange = "2022-05-29 23:17:20 +0000";
layers = (
{
anchors = (
{
name = bottom;
pos = (643,0);
},
{
name = center;
pos = (643,700);
},
{
name = top;
pos = (643,1400);
}
);
layerId = m01;
shapes = (
{
attr = {
fillColor = (0,255);
lineCapEnd = "2";
lineCapStart = "2";
strokeHeight = 120;
strokeWidth = 120;
};
closed = 0;
nodes = (
(160,6,l),
(160,791,l)
);
},
{
attr = {
fillColor = (0,255);
lineCapEnd = "1";
lineCapStart = "2";
strokeHeight = 120;
strokeWidth = 120;
};
closed = 0;
nodes = (
(525,60,l),
(878,60,o),
(1165,347,o),
(1165,700,cs),
(1165,1053,o),
(878,1340,o),
(525,1340,cs),
(166,1340,l)
);
}
);
width = 1225;
},
{
anchors = (
{
name = bottom;
pos = (668,0);
},
{
name = center;
pos = (668,700);
},
{
name = top;
pos = (608,1400);
}
);
layerId = "19FA402B-9607-46D9-AAD6-815AECBA5B6B";
name = Regular;
shapes = (
{
attr = {
fillColor = (0,255);
lineCapEnd = "2";
lineCapStart = "2";
strokeHeight = 120;
strokePos = 0;
strokeWidth = 120;
};
closed = 0;
nodes = (
(125,6,l),
(125,791,l)
);
},
{
attr = {
fillColor = (0,255);
lineCapEnd = "1";
lineCapStart = 2;
strokeHeight = 120;
strokePos = 1;
strokeWidth = 120;
};
closed = 0;
nodes = (
(131,1280,l),
(550,1280,ls),
(870,1280,o),
(1130,1020,o),
(1130,700,cs),
(1130,380,o),
(870,120,o),
(550,120,c)
);
}
);
width = 1340;
},
{
anchors = (
{
name = bottom;
pos = (1843,0);
},
{
name = center;
pos = (1843,700);
},
{
name = top;
pos = (1843,1400);
}
);
layerId = "FF87E3F2-B049-41CB-BF2F-09DB15105515";
width = 2485;
}
);
metricLeft = H;
metricRight = O;
unicode = (68,100);
},
{
color = 5;
glyphname = Eth;
kernLeft = ETH;
kernRight = O;
lastChange = "2022-05-29 23:17:13 +0000";
layers = (
{
layerId = m01;
width = 600;
},
{
anchors = (
{
name = bottom;
pos = (722,0);
},
{
name = center;
pos = (722,700);
},
{
name = top;
pos = (662,1400);
}
);
layerId = "19FA402B-9607-46D9-AAD6-815AECBA5B6B";
shapes = (
{
attr = {
fillColor = (0,255);
identifier = ID0x6000004932c0;
lineCapEnd = "2";
lineCapStart = "2";
strokeHeight = 120;
strokePos = 0;
strokeWidth = 120;
};
closed = 0;
nodes = (
(179,6,l),
(179,491,l)
);
},
{
attr = {
fillColor = (0,255);
identifier = ID0x6000004932c0;
lineCapEnd = "1";
lineCapStart = 2;
strokeHeight = 120;
strokePos = 1;
strokeWidth = 120;
};
closed = 0;
nodes = (
(185,1280,l),
(604,1280,ls),
(924,1280,o),
(1184,1020,o),
(1184,700,cs),
(1184,380,o),
(924,120,o),
(604,120,c)
);
},
{
attr = {
fillColor = (0,255);
identifier = ID0x6000004932c0;
lineCapEnd = "2";
lineCapStart = "2";
strokeHeight = 120;
strokeWidth = 120;
};
closed = 0;
nodes = (
(6,700,l),
(592,700,l)
);
}
);
width = 1364;
},
{
layerId = "FF87E3F2-B049-41CB-BF2F-09DB15105515";
width = 600;
}
);
unicode = (208,240);
},
{
color = 4;
glyphname = E;
kernRight = E;
lastChange = "2022-05-29 23:17:20 +0000";
layers = (
{
anchors = (
{
name = bottom;
pos = (517,0);
},
{
name = ogonek;
pos = (931,10);
},
{
name = top;
pos = (517,1400);
},
{
name = topleft;
pos = (20,1400);
}
);
layerId = m01;
shapes = (
{
attr = {
fillColor = (0,255);
lineCapEnd = "3";
lineCapStart = "2";
strokeHeight = 120;
strokeWidth = 120;
};
closed = 0;
nodes = (
(160,760,l),
(160,124,l)
);
},
{
attr = {
fillColor = (0,255);
lineCapEnd = "2";
lineCapStart = "2";
strokeHeight = 120;
strokeWidth = 120;
};
closed = 0;
nodes = (
(978,700,l),
(433,700,l)
);
},
{
attr = {
fillColor = (0,255);
lineCapEnd = "1";
lineCapStart = "2";
strokeHeight = 120;
strokeWidth = 120;
};
closed = 0;
nodes = (
(978,1336,l),
(160,1336,l)
);
},
{
attr = {
fillColor = (0,255);
lineCapEnd = "2";
lineCapStart = "1";
strokeHeight = 120;
strokeWidth = 120;
};
closed = 0;
nodes = (
(160,64,l),
(978,64,l)
);
}
);
width = 1084;
},
{
anchors = (
{
name = bottom;
pos = (522,0);
},
{
name = ogonek;
pos = (950,0);
},
{
name = top;
pos = (542,1400);
},
{
name = topleft;
pos = (45,1400);
}
);
layerId = "19FA402B-9607-46D9-AAD6-815AECBA5B6B";
name = Regular;
shapes = (
{
attr = {
fillColor = (0,255);
lineCapEnd = "3";
lineCapStart = "2";
strokeHeight = 120;
strokeWidth = 120;
};
closed = 0;
nodes = (
(185,760,l),
(185,120,l)
);
},
{
attr = {
fillColor = (0,255);
lineCapEnd = "2";
lineCapStart = "2";
strokeHeight = 120;
strokeWidth = 120;
};
closed = 0;
nodes = (
(1003,700,l),
(458,700,l)
);
},
{
attr = {
fillColor = (0,255);
lineCapEnd = "1";
lineCapStart = "2";
strokeHeight = 120;
strokeWidth = 120;
};
closed = 0;
nodes = (
(1003,1340,l),
(185,1340,l)
);
},
{
attr = {
fillColor = (0,255);
lineCapEnd = "2";
lineCapStart = "1";
strokeHeight = 120;
strokeWidth = 120;
};
closed = 0;
nodes = (
(185,60,l),
(1003,60,l)
);
}
);
width = 1089;
},
{
anchors = (
{
name = bottom;
pos = (1717,0);
},
{
name = ogonek;
pos = (2131,10);
},
{
name = top;
pos = (1717,1400);
},
{
name = topleft;
pos = (1220,1400);
}
);
layerId = "FF87E3F2-B049-41CB-BF2F-09DB15105515";
width = 2234;
}
);
metricLeft = H;
unicode = (69,101);
},
{
color = 4;
glyphname = F;
kernLeft = I;
kernRight = F;
lastChange = "2022-05-29 23:17:20 +0000";
layers = (
{
anchors = (
{
name = bottom;
pos = (520,0);
},
{
name = top;
pos = (520,1400);
}
);
layerId = m01;
shapes = (
{
attr = {
fillColor = (0,255);
lineCapEnd = "3";
lineCapStart = "1";
strokeHeight = 120;
strokeWidth = 120;
};
closed = 0;
nodes = (
(160,60,l),
(160,640,l)
);
},
{
attr = {
fillColor = (0,255);
lineCapEnd = "1";
lineCapStart = "2";
strokeHeight = 120;
strokeWidth = 120;
};
closed = 0;
nodes = (
(983,1340,l),
(160,1340,l)
);
},
{
attr = {
fillColor = (0,255);
lineCapEnd = "2";
lineCapStart = "1";
strokeHeight = 120;
strokeWidth = 120;
};
closed = 0;
nodes = (
(160,700,l),
(883,700,l)
);
}
);
width = 1089;
},
{
anchors = (
{
name = bottom;
pos = (545,0);
},
{
name = top;
pos = (565,1400);
}
);
layerId = "19FA402B-9607-46D9-AAD6-815AECBA5B6B";
name = Regular;
shapes = (
{
attr = {
fillColor = (0,255);
lineCapEnd = "3";
lineCapStart = "1";
strokeHeight = 120;
strokeWidth = 120;
};
closed = 0;
nodes = (
(185,60,l),
(185,640,l)
);
},
{
attr = {
fillColor = (0,255);
lineCapEnd = "1";
lineCapStart = "2";
strokeHeight = 120;
strokeWidth = 120;
};
closed = 0;
nodes = (
(1008,1340,l),
(185,1340,l)
);
},
{
attr = {
fillColor = (0,255);
lineCapEnd = "2";
lineCapStart = "1";
strokeHeight = 120;
strokeWidth = 120;
};
closed = 0;
nodes = (
(185,700,l),
(908,700,l)
);
}
);
width = 1094;
},
{
anchors = (
{
name = bottom;
pos = (1720,0);
},
{
name = top;
pos = (1720,1400);
}
);
layerId = "FF87E3F2-B049-41CB-BF2F-09DB15105515";
width = 2239;
}
);
metricLeft = H;
metricRight = E;
unicode = (70,102);
},
{
color = 4;
glyphname = G;
kernLeft = O;
kernRight = G;
lastChange = "2022-05-29 23:17:20 +0000";
layers = (
{
anchors = (
{
name = bottom;
pos = (550,0);
},
{
name = top;
pos = (550,1400);
}
);
layerId = m01;
shapes = (
{
attr = {
fillColor = (0,255);
};
closed = 0;
nodes = (
(708,1340,l)
);
},
{
attr = {
fillColor = (0,255);
lineCapEnd = "1";
lineCapStart = "1";
strokeHeight = 120;
strokePos = "0";
strokeWidth = 120;
};
closed = 0;
nodes = (
(1054,608,l),
(1054,60,l)
);
},
{
attr = {
fillColor = (0,255);
lineCapEnd = "2";
lineCapStart = "2";
strokeHeight = 120;
strokeWidth = 120;
};
closed = 0;
nodes = (
(1054,1340,l),
(700,1340,ls),
(347,1340,o),
(60,1053,o),
(60,700,cs),
(60,347,o),
(347,60,o),
(700,60,c)
);
}
);
width = 1160;
},
{
anchors = (
{
name = bottom;
pos = (710,0);
},
{
name = top;
pos = (770,1400);
}
);
layerId = "19FA402B-9607-46D9-AAD6-815AECBA5B6B";
name = Regular;
shapes = (
{
attr = {
fillColor = (0,255);
};
closed = 0;
nodes = (
(798,1340,l)
);
},
{
attr = {
fillColor = (0,255);
lineCapEnd = "1";
lineCapStart = "1";
strokeHeight = 120;
strokePos = "0";
strokeWidth = 120;
};
closed = 0;
nodes = (
(1284,608,l),
(1284,60,l)
);
},
{
attr = {
fillColor = (0,255);
lineCapEnd = "1";
lineCapStart = "2";
strokeHeight = 120;
strokePos = "0";
strokeWidth = 120;
};
closed = 0;
nodes = (
(1284,1280,l),
(790,1280,ls),
(470,1280,o),
(210,1020,o),
(210,700,cs),
(210,380,o),
(470,120,o),
(790,120,c)
);
}
);
width = 1415;
},
{
anchors = (
{
name = bottom;
pos = (610,0);
},
{
name = top;
pos = (610,1400);
}
);
layerId = "FF87E3F2-B049-41CB-BF2F-09DB15105515";
width = 2620;
}
);
metricLeft = O;
metricRight = H;
unicode = (71,103);
},
{
color = 4;
glyphname = H;
kernLeft = I;
kernRight = I;
lastChange = "2022-05-29 23:17:20 +0000";
layers = (
{
anchors = (
{
name = bottom;
pos = (628,0);
},
{
name = center;
pos = (628,700);
},
{
name = top;
pos = (628,1400);
},
{
name = topleft;
pos = (20,1400);
}
);
layerId = m01;
shapes = (
{
attr = {
fillColor = (0,255);
lineCapEnd = "1";
lineCapStart = 2;
strokeHeight = "50\\";
strokeWidth = 50;
};
closed = 0;
nodes = (
(1131,0,l),
(1131,700,l)
);
},
{
attr = {
fillColor = (0,255);
lineCapEnd = 2;
lineCapStart = 2;
strokeHeight = "50\\";
strokeWidth = 50;
};
closed = 0;
nodes = (
(1131,1400,l),
(1131,995,l)
);
},
{
attr = {
fillColor = (0,255);
lineCapEnd = 2;
lineCapStart = 2;
strokeHeight = "50\\";
strokeWidth = 50;
};
closed = 0;
nodes = (
(125,405,l),
(125,0,l)
);
},
{
attr = {
fillColor = (0,255);
lineCapEnd = 2;
lineCapStart = "1";
strokeHeight = "50\\";
strokeWidth = 50;
};
closed = 0;
nodes = (
(125,700,l),
(125,1400,l)
);
},
{
attr = {
lineCapEnd = "3";
lineCapStart = "3";
strokeHeight = "50\\";
strokeWidth = 50;
};
closed = 0;
nodes = (
(150,700,l),
(1106,700,l)
);
}
);
width = 1256;
},
{
anchors = (
{
name = bottom;
pos = (688,0);
},
{
name = center;
pos = (688,700);
},
{
name = top;
pos = (688,1400);
},
{
name = topleft;
pos = (45,1400);
}
);
layerId = "19FA402B-9607-46D9-AAD6-815AECBA5B6B";
shapes = (
{
attr = {
fillColor = (0,255);
lineCapEnd = 1;
lineCapStart = 1;
strokeHeight = 120;
strokeWidth = 120;
};
closed = 0;
nodes = (
(1191,60,l),
(1191,700,l)
);
},
{
attr = {
fillColor = (0,255);
lineCapEnd = 2;
lineCapStart = 2;
strokeHeight = 120;
strokeWidth = 120;
};
closed = 0;
nodes = (
(1191,1394,l),
(1191,995,l)
);
},
{
attr = {
fillColor = (0,255);
lineCapEnd = 2;
lineCapStart = 2;
strokeHeight = 120;
strokeWidth = 120;
};
closed = 0;
nodes = (
(185,405,l),
(185,6,l)
);
},
{
attr = {
fillColor = (0,255);
lineCapEnd = 2;
lineCapStart = 1;
strokeHeight = 120;
strokeWidth = 120;
};
closed = 0;
nodes = (
(185,700,l),
(185,1394,l)
);
},
{
attr = {
lineCapEnd = 3;
lineCapStart = 3;
strokeHeight = 120;
strokeWidth = 120;
};
closed = 0;
nodes = (
(245,700,l),
(1131,700,l)
);
}
);
width = 1376;
},
{
anchors = (
{
name = bottom;
pos = (753,0);
},
{
name = center;
pos = (753,700);
},
{
name = top;
pos = (753,1400);
},
{
name = topleft;
pos = (20,1400);
}
);
layerId = "FF87E3F2-B049-41CB-BF2F-09DB15105515";
shapes = (
{
attr = {
fillColor = (0,255);
lineCapEnd = "1";
lineCapStart = 2;
strokeHeight = 300;
strokeWidth = 300;
};
closed = 0;
nodes = (
(1256,0,l),
(1256,700,l)
);
},
{
attr = {
fillColor = (0,255);
lineCapEnd = 2;
lineCapStart = 2;
strokeHeight = 300;
strokeWidth = 300;
};
closed = 0;
nodes = (
(1256,1400,l),
(1256,995,l)
);
},
{
attr = {
fillColor = (0,255);
lineCapEnd = 2;
lineCapStart = 2;
strokeHeight = 300;
strokeWidth = 300;
};
closed = 0;
nodes = (
(250,405,l),
(250,0,l)
);
},
{
attr = {
fillColor = (0,255);
lineCapEnd = 2;
lineCapStart = "1";
strokeHeight = 300;
strokeWidth = 300;
};
closed = 0;
nodes = (
(250,700,l),
(250,1400,l)
);
},
{
attr = {
lineCapEnd = "3";
lineCapStart = "3";
strokeHeight = 300;
strokeWidth = 300;
};
closed = 0;
nodes = (
(400,700,l),
(1106,700,l)
);
}
);
width = 1506;
}
);
unicode = (72,104);
},
{
color = 4;
glyphname = I;
kernLeft = I;
kernRight = I;
lastChange = "2022-05-29 23:17:20 +0000";
layers = (
{
anchors = (
{
name = bottom;
pos = (1000,0);
},
{
name = ogonek;
pos = (1240,10);
},
{
name = top;
pos = (1000,1400);
},
{
name = topleft;
pos = (720,1400);
}
);
layerId = m01;
width = 2000;
},
{
anchors = (
{
name = bottom;
pos = (185,0);
},
{
name = ogonek;
pos = (185,0);
},
{
name = top;
pos = (185,1400);
},
{
name = topleft;
pos = (45,1400);
}
);
layerId = "19FA402B-9607-46D9-AAD6-815AECBA5B6B";
shapes = (
{
attr = {
fillColor = (0,255);
lineCapEnd = "2";
lineCapStart = "1";
strokeHeight = 120;
strokeWidth = 120;
};
closed = 0;
nodes = (
(185,500,l),
(185,6,l)
);
},
{
attr = {
fillColor = (0,255);
lineCapEnd = "1";
lineCapStart = "2";
strokeHeight = 120;
strokeWidth = 120;
};
closed = 0;
nodes = (
(185,1394,l),
(185,900,l)
);
}
);
width = 370;
},
{
anchors = (
{
name = bottom;
pos = (1000,0);
},
{
name = ogonek;
pos = (1240,10);
},
{
name = top;
pos = (1000,1400);
},
{
name = topleft;
pos = (720,1400);
}
);
layerId = "FF87E3F2-B049-41CB-BF2F-09DB15105515";
width = 2000;
}
);
metricLeft = H;
metricRight = H;
unicode = (73,105,305);
},
{
color = 4;
glyphname = J;
kernLeft = J;
kernRight = J;
lastChange = "2022-05-29 23:17:20 +0000";
layers = (
{
anchors = (
{
name = bottom;
pos = (1020,0);
},
{
name = top;
pos = (1020,1400);
}
);
layerId = m01;
width = 1320;
},
{
anchors = (
{
name = bottom;
pos = (568,0);
},
{
name = top;
pos = (1006,1400);
}
);
layerId = "19FA402B-9607-46D9-AAD6-815AECBA5B6B";
shapes = (
{
attr = {
fillColor = (0,255);
lineCapEnd = "1";
lineCapStart = "2";
strokeHeight = 120;
strokePos = 0;
strokeWidth = 120;
};
closed = 0;
nodes = (
(1066,1394,l),
(1066,900,l)
);
},
{
attr = {
lineCapEnd = 1;
lineCapStart = 1;
strokeHeight = 120;
strokePos = 0;
strokeWidth = 120;
};
closed = 0;
nodes = (
(190,498,l),
(190,289,o),
(359,120,o),
(568,120,cs),
(776,120,o),
(945,289,o),
(945,498,c)
);
}
);
width = 1166;
},
{
anchors = (
{
name = bottom;
pos = (300,0);
},
{
name = top;
pos = (300,1400);
}
);
layerId = "FF87E3F2-B049-41CB-BF2F-09DB15105515";
width = 600;
}
);
metricLeft = A;
unicode = (74,106,567);
},
{
color = 4;
glyphname = K;
kernLeft = I;
kernRight = K;
lastChange = "2022-05-29 23:17:20 +0000";
layers = (
{
anchors = (
{
name = bottom;
pos = (1500,0);
},
{
name = top;
pos = (1500,1400);
}
);
layerId = m01;
width = 2460;
},
{
anchors = (
{
name = bottom;
pos = (635,0);
},
{
name = top;
pos = (635,1400);
}
);
layerId = "19FA402B-9607-46D9-AAD6-815AECBA5B6B";
shapes = (
{
attr = {
fillColor = (0,255);
lineCapEnd = 2;
lineCapStart = 2;
strokeHeight = 120;
strokePos = 1;
strokeWidth = 120;
};
closed = 0;
nodes = (
(125,1394,l),
(125,6,l)
);
},
{
attr = {
fillColor = (0,255);
lineCapEnd = 2;
lineCapStart = 1;
strokeHeight = 120;
strokeWidth = 120;
};
closed = 0;
nodes = (
(484,700,l),
(1162,22,l)
);
},
{
attr = {
fillColor = (0,255);
lineCapEnd = 2;
lineCapStart = 1;
strokeHeight = 120;
strokeWidth = 120;
};
closed = 0;
nodes = (
(782,998,l),
(1162,1378,l)
);
}
);
width = 1254;
},
{
anchors = (
{
name = bottom;
pos = (1500,0);
},
{
name = top;
pos = (1500,1400);
}
);
layerId = "FF87E3F2-B049-41CB-BF2F-09DB15105515";
width = 1800;
}
);
metricLeft = H;
metricRight = A;
unicode = (75,107);
},
{
color = 4;
glyphname = L;
kernLeft = I;
kernRight = L;
lastChange = "2022-05-29 23:17:20 +0000";
layers = (
{
anchors = (
{
name = bottom;
pos = (1500,0);
},
{
name = center;
pos = (1500,700);
},
{
name = top;
pos = (1500,1400);
},
{
name = topright;
pos = (1780,1400);
}
);
layerId = m01;
width = 2520;
},
{
anchors = (
{
name = bottom;
pos = (619,0);
},
{
name = center;
pos = (619,700);
},
{
name = top;
pos = (191,1400);
},
{
name = topright;
pos = (1192,1400);
}
);
layerId = "19FA402B-9607-46D9-AAD6-815AECBA5B6B";
shapes = (
{
attr = {
fillColor = (0,255);
lineCapEnd = 2;
lineCapStart = 2;
strokeHeight = 120;
strokePos = 1;
strokeWidth = 120;
};
closed = 0;
nodes = (
(131,4,l),
(1146,4,l)
);
},
{
attr = {
fillColor = (0,255);
lineCapEnd = 1;
lineCapStart = 2;
strokeHeight = 120;
strokePos = 1;
strokeWidth = 120;
};
closed = 0;
nodes = (
(131,1394,l),
(131,402,l)
);
}
);
width = 1222;
},
{
anchors = (
{
name = bottom;
pos = (1500,0);
},
{
name = center;
pos = (1500,700);
},
{
name = top;
pos = (1500,1400);
},
{
name = topright;
pos = (1780,1400);
}
);
layerId = "FF87E3F2-B049-41CB-BF2F-09DB15105515";
width = 1800;
}
);
metricLeft = H;
metricRight = A;
unicode = (76,108);
},
{
color = 5;
glyphname = Lslash;
kernLeft = I;
kernRight = L;
lastChange = "2022-05-29 23:17:13 +0000";
layers = (
{
layerId = m01;
width = 600;
},
{
layerId = "19FA402B-9607-46D9-AAD6-815AECBA5B6B";
shapes = (
{
attr = {
fillColor = (0,255);
identifier = ID0x60000ffd4000;
lineCapEnd = 1;
lineCapStart = 1;
strokeHeight = 120;
strokePos = 1;
strokeWidth = 120;
};
closed = 0;
nodes = (
(241,0,l),
(1136,0,l)
);
},
{
attr = {
fillColor = (0,255);
identifier = ID0x60000ffd4000;
lineCapEnd = 2;
lineCapStart = 2;
strokeHeight = 120;
strokeWidth = 120;
};
closed = 0;
nodes = (
(241,1394,l),
(241,926,l)
);
},
{
attr = {
fillColor = (0,255);
lineCapEnd = 2;
lineCapStart = 2;
strokeHeight = 120;
strokeWidth = 120;
};
closed = 0;
nodes = (
(13,570,l),
(473,830,l)
);
},
{
attr = {
fillColor = (0,255);
identifier = ID0x60000ffd4000;
lineCapEnd = "2";
lineCapStart = "2";
strokeHeight = 120;
strokeWidth = 120;
};
closed = 0;
nodes = (
(241,474,l),
(241,6,l)
);
}
);
width = 1266;
},
{
layerId = "FF87E3F2-B049-41CB-BF2F-09DB15105515";
width = 600;
}
);
metricRight = L;
unicode = (321,322);
},
{
color = 4;
glyphname = M;
kernLeft = I;
kernRight = I;
lastChange = "2022-05-29 23:17:20 +0000";
layers = (
{
anchors = (
{
name = bottom;
pos = (1500,0);
},
{
name = top;
pos = (1500,1400);
}
);
layerId = m01;
width = 3000;
},
{
anchors = (
{
name = bottom;
pos = (715,0);
},
{
name = top;
pos = (785,1400);
}
);
layerId = "19FA402B-9607-46D9-AAD6-815AECBA5B6B";
shapes = (
{
attr = {
fillColor = (0,255);
lineCapEnd = 2;
lineCapStart = 2;
strokeHeight = 120;
strokePos = 0;
strokeWidth = 120;
};
closed = 0;
nodes = (
(125,6,l),
(125,1394,l)
);
},
{
attr = {
fillColor = (0,255);
lineCapEnd = 2;
lineCapStart = 2;
strokeHeight = 120;
strokePos = 1;
strokeWidth = 120;
};
closed = 0;
nodes = (
(1445,6,l),
(1445,1394,l)
);
},
{
attr = {
fillColor = (0,255);
lineCapEnd = 1;
lineCapStart = 2;
strokeHeight = 120;
strokeWidth = 120;
};
closed = 0;
nodes = (
(152,1375,l),
(785,698,l)
);
}
);
width = 1570;
},
{
anchors = (
{
name = bottom;
pos = (1500,0);
},
{
name = top;
pos = (1500,1400);
}
);
layerId = "FF87E3F2-B049-41CB-BF2F-09DB15105515";
width = 3000;
}
);
metricLeft = H;
metricRight = H;
unicode = (77,109);
},
{
color = 4;
glyphname = N;
kernLeft = I;
kernRight = I;
lastChange = "2022-05-29 23:17:20 +0000";
layers = (
{
anchors = (
{
name = bottom;
pos = (1500,0);
},
{
name = top;
pos = (1500,1400);
}
);
layerId = m01;
width = 3000;
},
{
anchors = (
{
name = bottom;
pos = (732,0);
},
{
name = top;
pos = (732,1400);
}
);
layerId = "19FA402B-9607-46D9-AAD6-815AECBA5B6B";
shapes = (
{
attr = {
fillColor = (0,255);
lineCapEnd = 2;
lineCapStart = 2;
strokeHeight = 120;
strokePos = 0;
strokeWidth = 120;
};
closed = 0;
nodes = (
(1338,1394,l),
(1338,6,l)
);
},
{
attr = {
fillColor = (0,255);
lineCapEnd = 1;
strokeHeight = 120;
strokeWidth = 120;
};
closed = 0;
nodes = (
(1280,57,l),
(583,1000,l)
);
},
{
attr = {
fillColor = (0,255);
lineCapEnd = 2;
lineCapStart = 2;
strokeHeight = 120;
strokePos = 1;
strokeWidth = 120;
};
closed = 0;
nodes = (
(125,1394,l),
(125,6,l)
);
}
);
width = 1463;
},
{
anchors = (
{
name = bottom;
pos = (1500,0);
},
{
name = top;
pos = (1500,1400);
}
);
layerId = "FF87E3F2-B049-41CB-BF2F-09DB15105515";
width = 3000;
}
);
metricLeft = H;
metricRight = H;
unicode = (78,110);
},
{
color = 4;
glyphname = O;
kernLeft = O;
kernRight = O;
lastChange = "2022-05-29 23:17:20 +0000";
layers = (
{
anchors = (
{
name = bottom;
pos = (300,0);
},
{
name = center;
pos = (300,700);
},
{
name = ogonek;
pos = (540,10);
},
{
name = top;
pos = (300,1400);
},
{
name = topleft;
pos = (20,1400);
},
{
name = topright;
pos = (580,1400);
}
);
layerId = m01;
width = 600;
},
{
anchors = (
{
name = bottom;
pos = (790,0);
},
{
name = center;
pos = (790,700);
},
{
name = ogonek;
pos = (790,0);
},
{
name = top;
pos = (790,1400);
},
{
name = topleft;
pos = (50,1400);
},
{
name = topright;
pos = (1530,1400);
}
);
layerId = "19FA402B-9607-46D9-AAD6-815AECBA5B6B";
shapes = (
{
closed = 1;
nodes = (
(328,1136,o),
(355,1163,o),
(355,1196,cs),
(355,1229,o),
(328,1256,o),
(295,1256,cs),
(262,1256,o),
(235,1229,o),
(235,1196,cs),
(235,1163,o),
(262,1136,o),
(295,1136,cs)
);
},
{
attr = {
lineCapEnd = "1";
lineCapStart = "1";
strokeHeight = 120;
strokePos = 0;
strokeWidth = 120;
};
closed = 0;
nodes = (
(210,700,l),
(210,379,o),
(469,120,o),
(790,120,cs),
(1111,120,o),
(1370,379,o),
(1370,700,cs),
(1370,1021,o),
(1111,1280,o),
(790,1280,c)
);
}
);
width = 1580;
},
{
anchors = (
{
name = bottom;
pos = (300,0);
},
{
name = center;
pos = (300,700);
},
{
name = ogonek;
pos = (540,10);
},
{
name = top;
pos = (300,1400);
},
{
name = topleft;
pos = (20,1400);
},
{
name = topright;
pos = (580,1400);
}
);
layerId = "FF87E3F2-B049-41CB-BF2F-09DB15105515";
width = 600;
}
);
unicode = (79,111);
},
{
color = 5;
glyphname = Oslash;
kernLeft = O;
kernRight = O;
lastChange = "2022-05-29 23:17:13 +0000";
layers = (
{
layerId = m01;
width = 600;
},
{
layerId = "19FA402B-9607-46D9-AAD6-815AECBA5B6B";
shapes = (
{
attr = {
lineCapEnd = "2";
lineCapStart = "2";
strokeHeight = 120;
strokePos = 1;
strokeWidth = 120;
};
closed = 0;
nodes = (
(1298,922,l),
(1355,785,o),
(1360,626,o),
(1298,477,cs),
(1175,182,o),
(836,41,o),
(539,164,c)
);
},
{
attr = {
lineCapEnd = "2";
lineCapStart = "2";
strokeHeight = 120;
strokePos = "0";
strokeWidth = 120;
};
closed = 0;
nodes = (
(982,1236,l),
(685,1359,o),
(346,1218,o),
(223,923,cs),
(161,774,o),
(166,615,o),
(223,478,c)
);
},
{
attr = {
fillColor = (0,255);
lineCapEnd = "1";
lineCapStart = "2";
strokeHeight = 120;
strokeWidth = 120;
};
closed = 0;
nodes = (
(1439,1378,l),
(121,60,l)
);
}
);
width = 1521;
},
{
layerId = "FF87E3F2-B049-41CB-BF2F-09DB15105515";
width = 600;
}
);
unicode = (216,248);
},
{
color = 5;
glyphname = OE;
kernLeft = O;
kernRight = E;
lastChange = "2022-05-29 23:17:13 +0000";
layers = (
{
layerId = m01;
width = 1800;
},
{
layerId = "19FA402B-9607-46D9-AAD6-815AECBA5B6B";
shapes = (
{
attr = {
fillColor = (0,255);
lineCapEnd = "3";
lineCapStart = "2";
strokeHeight = 120;
strokePos = 1;
strokeWidth = 120;
};
closed = 0;
nodes = (
(986,760,l),
(986,120,l)
);
},
{
attr = {
fillColor = (0,255);
lineCapEnd = "1";
lineCapStart = "2";
strokeHeight = 120;
strokePos = 0;
strokeWidth = 120;
};
closed = 0;
nodes = (
(1743,1280,l),
(790,1280,ls),
(469,1280,o),
(210,1021,o),
(210,700,cs),
(210,379,o),
(469,120,o),
(790,120,cs)
);
},
{
attr = {
fillColor = (0,255);
lineCapEnd = "2";
lineCapStart = "1";
strokeHeight = 120;
strokePos = 1;
strokeWidth = 120;
};
closed = 0;
nodes = (
(1046,0,l),
(1743,0,l)
);
},
{
attr = {
fillColor = (0,255);
lineCapEnd = "2";
lineCapStart = "2";
strokeHeight = 120;
strokeWidth = 120;
};
closed = 0;
nodes = (
(1742,700,l),
(1319,700,l)
);
}
);
width = 1829;
},
{
layerId = "FF87E3F2-B049-41CB-BF2F-09DB15105515";
width = 600;
}
);
metricLeft = O;
metricRight = E;
unicode = (338,339);
},
{
color = 4;
glyphname = P;
kernLeft = P;
kernRight = P;
lastChange = "2022-05-29 23:17:20 +0000";
layers = (
{
anchors = (
{
name = bottom;
pos = (1500,0);
},
{
name = top;
pos = (1500,1400);
}
);
layerId = m01;
width = 1800;
},
{
anchors = (
{
name = bottom;
pos = (601,0);
},
{
name = top;
pos = (601,1400);
}
);
layerId = "19FA402B-9607-46D9-AAD6-815AECBA5B6B";
shapes = (
{
attr = {
fillColor = (0,255);
lineCapEnd = 2;
lineCapStart = 1;
strokeHeight = 120;
strokePos = 1;
strokeWidth = 120;
};
closed = 0;
nodes = (
(125,661,l),
(125,6,l)
);
},
{
attr = {
fillColor = (0,255);
lineCapEnd = 1;
lineCapStart = 1;
strokeHeight = 120;
strokePos = 1;
strokeWidth = 120;
};
closed = 0;
nodes = (
(185,1276,l),
(729,1276,ls),
(882,1276,o),
(1006,1152,o),
(1006,999,cs),
(1006,845,o),
(882,721,o),
(729,721,cs),
(583,721,l)
);
}
);
width = 1201;
},
{
anchors = (
{
name = bottom;
pos = (1500,0);
},
{
name = top;
pos = (1500,1400);
}
);
layerId = "FF87E3F2-B049-41CB-BF2F-09DB15105515";
width = 1800;
}
);
metricLeft = H;
unicode = (80,112);
},
{
color = 5;
glyphname = Thorn;
kernLeft = I;
kernRight = THORN;
lastChange = "2022-05-29 23:17:13 +0000";
layers = (
{
layerId = m01;
width = 1800;
},
{
layerId = "19FA402B-9607-46D9-AAD6-815AECBA5B6B";
shapes = (
{
attr = {
fillColor = (0,255);
lineCapEnd = "2";
lineCapStart = "1";
strokeHeight = 120;
strokeWidth = 120;
};
closed = 0;
nodes = (
(185,363,l),
(185,6,l)
);
},
{
attr = {
fillColor = (0,255);
lineCapEnd = "1";
lineCapStart = "1";
strokeHeight = 120;
strokePos = 1;
strokeWidth = 120;
};
closed = 0;
nodes = (
(525,978,l),
(683,978,ls),
(836,978,o),
(960,854,o),
(960,701,cs),
(960,547,o),
(836,423,o),
(683,423,cs),
(583,423,l)
);
},
{
attr = {
lineCapEnd = 1;
strokeHeight = 120;
strokeWidth = 120;
};
closed = 0;
nodes = (
(183,363,l),
(583,363,l)
);
},
{
attr = {
fillColor = (0,255);
lineCapEnd = "2";
lineCapStart = "1";
strokeHeight = 120;
strokeWidth = 120;
};
closed = 0;
nodes = (
(185,717,l),
(185,1394,l)
);
}
);
width = 1155;
},
{
layerId = "FF87E3F2-B049-41CB-BF2F-09DB15105515";
width = 1800;
}
);
metricLeft = H;
metricRight = P;
unicode = (222,254);
},
{
color = 4;
glyphname = Q;
kernLeft = O;
kernRight = O;
lastChange = "2022-05-29 23:17:20 +0000";
layers = (
{
anchors = (
{
name = bottom;
pos = (300,0);
},
{
name = top;
pos = (300,1400);
}
);
layerId = m01;
width = 600;
},
{
anchors = (
{
name = bottom;
pos = (790,0);
},
{
name = top;
pos = (790,1400);
}
);
layerId = "19FA402B-9607-46D9-AAD6-815AECBA5B6B";
shapes = (
{
attr = {
fillColor = (0,255);
lineCapEnd = "1";
lineCapStart = "2";
strokeHeight = 120;
strokeWidth = 120;
};
closed = 0;
nodes = (
(975,514,l),
(1429,60,l)
);
},
{
attr = {
lineCapEnd = "1";
lineCapStart = "1";
strokeHeight = 120;
strokePos = "0";
strokeWidth = 120;
};
closed = 0;
nodes = (
(1370,700,l),
(1370,1021,o),
(1111,1280,o),
(790,1280,cs),
(469,1280,o),
(210,1021,o),
(210,700,cs),
(210,379,o),
(469,120,o),
(790,120,c)
);
}
);
width = 1580;
},
{
anchors = (
{
name = bottom;
pos = (300,0);
},
{
name = top;
pos = (300,1400);
}
);
layerId = "FF87E3F2-B049-41CB-BF2F-09DB15105515";
width = 600;
}
);
metricLeft = O;
metricRight = O;
unicode = (81,113);
},
{
color = 4;
glyphname = R;
kernLeft = P;
kernRight = R;
lastChange = "2022-05-29 23:17:20 +0000";
layers = (
{
anchors = (
{
name = bottom;
pos = (1500,0);
},
{
name = top;
pos = (1500,1400);
}
);
layerId = m01;
width = 1860;
},
{
anchors = (
{
name = bottom;
pos = (604,0);
},
{
name = top;
pos = (604,1400);
}
);
layerId = "19FA402B-9607-46D9-AAD6-815AECBA5B6B";
shapes = (
{
attr = {
fillColor = (0,255);
lineCapEnd = 2;
lineCapStart = 1;
strokeHeight = 120;
strokePos = 1;
strokeWidth = 120;
};
closed = 0;
nodes = (
(141,661,l),
(141,6,l)
);
},
{
attr = {
fillColor = (0,255);
lineCapEnd = 2;
lineCapStart = 1;
strokeHeight = 120;
strokeWidth = 120;
};
closed = 0;
nodes = (
(598,658,l),
(1086,17,l)
);
},
{
attr = {
fillColor = (0,255);
lineCapEnd = "1";
lineCapStart = "1";
strokeHeight = 120;
strokePos = "1";
strokeWidth = 120;
};
closed = 0;
nodes = (
(185,1276,l),
(679,1276,ls),
(832,1276,o),
(956,1152,o),
(956,999,cs),
(956,845,o),
(832,721,o),
(679,721,cs),
(596,721,l)
);
}
);
width = 1183;
},
{
anchors = (
{
name = bottom;
pos = (1500,0);
},
{
name = top;
pos = (1500,1400);
}
);
layerId = "FF87E3F2-B049-41CB-BF2F-09DB15105515";
width = 1800;
}
);
metricLeft = H;
metricRight = K;
unicode = (82,114);
},
{
color = 4;
glyphname = S;
kernLeft = S;
kernRight = S;
lastChange = "2022-05-29 23:17:20 +0000";
layers = (
{
anchors = (
{
name = bottom;
pos = (300,0);
},
{
name = top;
pos = (300,1400);
}
);
layerId = m01;
width = 600;
},
{
anchors = (
{
name = bottom;
pos = (523,0);
},
{
name = top;
pos = (583,1400);
}
);
layerId = "19FA402B-9607-46D9-AAD6-815AECBA5B6B";
shapes = (
{
attr = {
fillColor = (0,255);
lineCapEnd = 1;
lineCapStart = 1;
strokeHeight = 120;
strokeWidth = 120;
};
closed = 0;
nodes = (
(475,700,l),
(692,700,l)
);
},
{
attr = {
fillColor = (0,255);
lineCapEnd = 1;
lineCapStart = 2;
strokeHeight = 120;
strokePos = 0;
strokeWidth = 120;
};
closed = 0;
nodes = (
(1080,1280,l),
(434,1280,l),
(308,1280,o),
(206,1178,o),
(206,1052,c)
);
},
{
attr = {
fillColor = (0,255);
lineCapEnd = "1";
lineCapStart = "2";
strokeHeight = 120;
strokePos = "0";
strokeWidth = 120;
};
closed = 0;
nodes = (
(86,120,l),
(732,120,l),
(858,120,o),
(960,222,o),
(960,348,c)
);
}
);
width = 1166;
},
{
anchors = (
{
name = bottom;
pos = (300,0);
},
{
name = top;
pos = (300,1400);
}
);
layerId = "FF87E3F2-B049-41CB-BF2F-09DB15105515";
width = 600;
}
);
unicode = (83,115);
},
{
color = 5;
glyphname = Germandbls;
kernLeft = I;
kernRight = SZ;
lastChange = "2022-05-29 23:17:13 +0000";
layers = (
{
layerId = m01;
width = 3000;
},
{
layerId = "19FA402B-9607-46D9-AAD6-815AECBA5B6B";
shapes = (
{
attr = {
fillColor = (0,255);
identifier = ID0x60000ffc08c0;
lineCapEnd = "2";
strokeHeight = 120;
strokeWidth = 120;
};
closed = 0;
nodes = (
(185,1336,l),
(185,0,l)
);
},
{
attr = {
fillColor = (0,255);
identifier = ID0x60000ffc08c0;
lineCapEnd = "2";
lineCapStart = "1";
strokeHeight = 120;
strokeWidth = 120;
};
closed = 0;
nodes = (
(185,1340,l),
(1025,1340,ls)
);
},
{
attr = {
fillColor = (0,255);
identifier = ID0x60000ffc08c0;
lineCapEnd = "2";
lineCapStart = "2";
strokeHeight = 120;
strokeWidth = 120;
};
closed = 0;
nodes = (
(405,60,l),
(765,60,ls),
(942,60,o),
(1085,203,o),
(1085,380,cs),
(1085,557,o),
(942,700,o),
(765,700,cs),
(535,700,l)
);
},
{
attr = {
fillColor = (0,255);
identifier = ID0x60000ffc08c0;
lineCapEnd = "2";
lineCapStart = "1";
strokeHeight = 120;
strokeWidth = 120;
};
closed = 0;
nodes = (
(767,1044,l),
(997,1376,l)
);
}
);
width = 1208;
},
{
layerId = "FF87E3F2-B049-41CB-BF2F-09DB15105515";
width = 2400;
}
);
metricLeft = H;
metricRight = B;
unicode = (7838,223);
},
{
color = 4;
glyphname = T;
kernLeft = T;
kernRight = T;
lastChange = "2022-05-29 23:17:20 +0000";
layers = (
{
anchors = (
{
name = bottom;
pos = (1020,0);
},
{
name = center;
pos = (1020,700);
},
{
name = top;
pos = (1020,1400);
}
);
layerId = m01;
width = 2040;
},
{
anchors = (
{
name = bottom;
pos = (565,0);
},
{
name = center;
pos = (625,700);
},
{
name = top;
pos = (625,1400);
}
);
layerId = "19FA402B-9607-46D9-AAD6-815AECBA5B6B";
shapes = (
{
attr = {
fillColor = (0,255);
lineCapStart = 2;
strokeHeight = 120;
strokeWidth = 120;
};
closed = 0;
nodes = (
(625,6,l),
(625,1346,l)
);
},
{
attr = {
fillColor = (0,255);
lineCapEnd = 2;
lineCapStart = 2;
strokeHeight = 120;
strokePos = 1;
strokeWidth = 120;
};
closed = 0;
nodes = (
(679,1400,l),
(76,1400,l)
);
},
{
attr = {
fillColor = (0,255);
lineCapEnd = "2";
lineCapStart = "2";
strokeHeight = 120;
strokePos = "1";
strokeWidth = 120;
};
closed = 0;
nodes = (
(1174,1400,l),
(861,1400,l)
);
}
);
width = 1250;
},
{
anchors = (
{
name = bottom;
pos = (300,0);
},
{
name = center;
pos = (300,700);
},
{
name = top;
pos = (300,1400);
}
);
layerId = "FF87E3F2-B049-41CB-BF2F-09DB15105515";
width = 600;
}
);
metricLeft = A;
metricRight = A;
unicode = (84,116);
},
{
color = 4;
glyphname = U;
kernLeft = U;
kernRight = U;
lastChange = "2022-05-29 23:17:20 +0000";
layers = (
{
anchors = (
{
name = bottom;
pos = (1500,0);
},
{
name = ogonek;
pos = (1740,10);
},
{
name = top;
pos = (1500,1400);
},
{
name = topright;
pos = (1780,1400);
}
);
layerId = m01;
width = 3000;
},
{
anchors = (
{
name = bottom;
pos = (623,0);
},
{
name = ogonek;
pos = (1101,10);
},
{
name = top;
pos = (623,1400);
},
{
name = topright;
pos = (1201,1400);
}
);
layerId = "19FA402B-9607-46D9-AAD6-815AECBA5B6B";
shapes = (
{
attr = {
lineCapEnd = 2;
lineCapStart = 1;
strokePos = 0;
strokeWidth = 120;
};
closed = 0;
nodes = (
(246,498,l),
(246,289,o),
(415,120,o),
(624,120,cs),
(832,120,o),
(1001,289,o),
(1001,498,cs),
(1001,1394,l)
);
},
{
attr = {
lineCapEnd = "1";
lineCapStart = 2;
strokeHeight = 120;
strokePos = "1";
strokeWidth = 120;
};
closed = 0;
nodes = (
(125,1394,l),
(125,899,l)
);
}
);
width = 1246;
},
{
anchors = (
{
name = bottom;
pos = (1500,0);
},
{
name = ogonek;
pos = (1740,10);
},
{
name = top;
pos = (1500,1400);
},
{
name = topright;
pos = (1780,1400);
}
);
layerId = "FF87E3F2-B049-41CB-BF2F-09DB15105515";
width = 3000;
}
);
metricLeft = H;
metricRight = H;
unicode = (85,117);
},
{
color = 4;
glyphname = V;
kernLeft = V;
kernRight = V;
lastChange = "2022-05-29 23:17:20 +0000";
layers = (
{
anchors = (
{
name = bottom;
pos = (1020,0);
},
{
name = top;
pos = (1020,1400);
}
);
layerId = m01;
width = 2040;
},
{
anchors = (
{
name = bottom;
pos = (706,0);
},
{
name = top;
pos = (706,1400);
}
);
layerId = "19FA402B-9607-46D9-AAD6-815AECBA5B6B";
shapes = (
{
attr = {
fillColor = (0,255);
lineCapEnd = "2";
lineCapStart = "2";
strokeHeight = 120;
strokeWidth = 120;
};
closed = 0;
nodes = (
(1303,1390,l),
(712,10,l)
);
},
{
attr = {
fillColor = (0,255);
lineCapEnd = "2";
lineCapStart = "2";
strokeHeight = 120;
strokeWidth = 120;
};
closed = 0;
nodes = (
(109,1390,l),
(405,689,l)
);
}
);
width = 1412;
},
{
anchors = (
{
name = bottom;
pos = (300,0);
},
{
name = top;
pos = (300,1400);
}
);
layerId = "FF87E3F2-B049-41CB-BF2F-09DB15105515";
width = 600;
}
);
metricLeft = A;
metricRight = A;
unicode = (86,118);
},
{
color = 4;
glyphname = W;
kernLeft = W;
kernRight = W;
lastChange = "2022-05-29 23:17:20 +0000";
layers = (
{
anchors = (
{
name = bottom;
pos = (1020,0);
},
{
name = top;
pos = (1020,1400);
}
);
layerId = m01;
width = 2040;
},
{
anchors = (
{
name = bottom;
pos = (988,0);
},
{
name = top;
pos = (988,1400);
}
);
layerId = "19FA402B-9607-46D9-AAD6-815AECBA5B6B";
shapes = (
{
attr = {
fillColor = (0,255);
lineCapEnd = "2";
lineCapStart = "2";
strokeHeight = 120;
strokeWidth = 120;
};
closed = 0;
nodes = (
(1004,1390,l),
(563,10,l)
);
},
{
attr = {
fillColor = (0,255);
lineCapEnd = "2";
lineCapStart = "2";
strokeHeight = 120;
strokeWidth = 120;
};
closed = 0;
nodes = (
(114,1390,l),
(335,689,l)
);
},
{
attr = {
fillColor = (0,255);
lineCapEnd = "2";
lineCapStart = "2";
strokeHeight = 120;
strokeWidth = 120;
};
closed = 0;
nodes = (
(1862,1390,l),
(1422,10,l)
);
},
{
attr = {
fillColor = (0,255);
lineCapEnd = "2";
lineCapStart = "2";
strokeHeight = 120;
strokeWidth = 120;
};
closed = 0;
nodes = (
(972,1390,l),
(1193,689,l)
);
}
);
width = 1976;
},
{
anchors = (
{
name = bottom;
pos = (300,0);
},
{
name = top;
pos = (300,1400);
}
);
layerId = "FF87E3F2-B049-41CB-BF2F-09DB15105515";
width = 600;
}
);
metricLeft = A;
metricRight = A;
unicode = (87,119);
},
{
color = 4;
glyphname = X;
kernLeft = X;
kernRight = X;
lastChange = "2022-05-29 23:17:20 +0000";
layers = (
{
anchors = (
{
name = bottom;
pos = (1020,0);
},
{
name = top;
pos = (1020,1400);
}
);
layerId = m01;
width = 2040;
},
{
anchors = (
{
name = bottom;
pos = (635,0);
},
{
name = top;
pos = (635,1400);
}
);
layerId = "19FA402B-9607-46D9-AAD6-815AECBA5B6B";
shapes = (
{
attr = {
fillColor = (0,255);
lineCapEnd = 2;
lineCapStart = 2;
strokeHeight = 120;
strokeWidth = 120;
};
closed = 0;
nodes = (
(1170,18,l),
(99,1382,l)
);
},
{
attr = {
fillColor = (0,255);
lineCapEnd = 1;
lineCapStart = 2;
strokeHeight = 120;
strokeWidth = 120;
};
closed = 0;
nodes = (
(97,16,l),
(400,402,l)
);
},
{
attr = {
fillColor = (0,255);
lineCapEnd = 2;
lineCapStart = 1;
strokeHeight = 120;
strokeWidth = 120;
};
closed = 0;
nodes = (
(869,998,l),
(1170,1382,l)
);
}
);
width = 1267;
},
{
anchors = (
{
name = bottom;
pos = (300,0);
},
{
name = top;
pos = (300,1400);
}
);
layerId = "FF87E3F2-B049-41CB-BF2F-09DB15105515";
width = 600;
}
);
metricLeft = A;
metricRight = A;
unicode = (88,120);
},
{
color = 4;
glyphname = Y;
kernLeft = Y;
kernRight = Y;
lastChange = "2022-05-29 23:17:20 +0000";
layers = (
{
anchors = (
{
name = bottom;
pos = (1020,0);
},
{
name = top;
pos = (1020,1400);
},
{
name = topleft;
pos = (740,1400);
}
);
layerId = m01;
width = 2040;
},
{
anchors = (
{
name = bottom;
pos = (633,0);
},
{
name = top;
pos = (633,1400);
},
{
name = topleft;
pos = (19,1400);
}
);
layerId = "19FA402B-9607-46D9-AAD6-815AECBA5B6B";
shapes = (
{
attr = {
fillColor = (0,255);
lineCapEnd = "2";
lineCapStart = "2";
strokeHeight = 120;
strokeWidth = 120;
};
closed = 0;
nodes = (
(633,6,l),
(633,739,l)
);
},
{
attr = {
fillColor = (0,255);
lineCapEnd = "1";
lineCapStart = "2";
strokeHeight = 120;
strokeWidth = 120;
};
closed = 0;
nodes = (
(97,1382,l),
(398,998,l)
);
},
{
attr = {
fillColor = (0,255);
lineCapEnd = "2";
lineCapStart = "1";
strokeHeight = 120;
strokeWidth = 120;
};
closed = 0;
nodes = (
(633,699,l),
(1169,1383,l)
);
}
);
width = 1266;
},
{
anchors = (
{
name = bottom;
pos = (300,0);
},
{
name = top;
pos = (300,1400);
},
{
name = topleft;
pos = (20,1400);
}
);
layerId = "FF87E3F2-B049-41CB-BF2F-09DB15105515";
width = 600;
}
);
metricLeft = A;
metricRight = A;
unicode = (89,121);
},
{
color = 4;
glyphname = Z;
kernLeft = Z;
kernRight = Z;
lastChange = "2022-05-29 23:17:20 +0000";
layers = (
{
anchors = (
{
name = bottom;
pos = (1020,0);
},
{
name = center;
pos = (1020,700);
},
{
name = top;
pos = (1020,1400);
}
);
layerId = m01;
width = 2040;
},
{
anchors = (
{
name = bottom;
pos = (623,0);
},
{
name = center;
pos = (623,700);
},
{
name = top;
pos = (623,1400);
}
);
layerId = "19FA402B-9607-46D9-AAD6-815AECBA5B6B";
shapes = (
{
attr = {
fillColor = (0,255);
lineCapEnd = 2;
lineCapStart = 2;
strokeHeight = 120;
strokeWidth = 120;
};
closed = 0;
nodes = (
(700,799,l),
(99,25,l)
);
},
{
attr = {
fillColor = (0,255);
lineCapEnd = 2;
lineCapStart = 2;
strokeHeight = 120;
strokePos = 0;
strokeWidth = 120;
};
closed = 0;
nodes = (
(76,1396,l),
(1170,1396,l)
);
},
{
attr = {
fillColor = (0,255);
lineCapEnd = 2;
lineCapStart = 2;
strokeHeight = 120;
strokePos = 1;
strokeWidth = 120;
};
closed = 0;
nodes = (
(76,4,l),
(1170,4,l)
);
}
);
width = 1246;
},
{
anchors = (
{
name = bottom;
pos = (300,0);
},
{
name = center;
pos = (300,700);
},
{
name = top;
pos = (300,1400);
}
);
layerId = "FF87E3F2-B049-41CB-BF2F-09DB15105515";
width = 600;
}
);
metricLeft = A;
metricRight = A;
unicode = (90,122);
},
{
color = 4;
glyphname = fi;
kernLeft = F;
kernRight = I;
lastChange = "2022-05-29 23:18:22 +0000";
layers = (
{
layerId = m01;
width = 600;
},
{
anchors = (
{
name = bottom_1;
pos = (545,0);
},
{
name = bottom_2;
pos = (1224,0);
},
{
name = ogonek_2;
pos = (1224,0);
},
{
name = top_1;
pos = (565,1400);
},
{
name = top_2;
pos = (1224,1400);
},
{
name = topleft_2;
pos = (1084,1400);
}
);
layerId = "19FA402B-9607-46D9-AAD6-815AECBA5B6B";
shapes = (
{
attr = {
fillColor = (0,255);
identifier = ID0x600000ba8000;
lineCapEnd = "3";
lineCapStart = "1";
strokeHeight = 120;
strokeWidth = 120;
};
closed = 0;
nodes = (
(185,60,l),
(185,640,l)
);
},
{
attr = {
fillColor = (0,255);
identifier = ID0x600000ba8000;
lineCapEnd = "1";
lineCapStart = "2";
strokeHeight = 120;
strokeWidth = 120;
};
closed = 0;
nodes = (
(1268,1340,l),
(185,1340,l)
);
},
{
attr = {
fillColor = (0,255);
identifier = ID0x600000ba8000;
lineCapEnd = "2";
lineCapStart = "1";
strokeHeight = 120;
strokeWidth = 120;
};
closed = 0;
nodes = (
(185,700,l),
(908,700,l)
);
},
{
attr = {
fillColor = (0,255);
identifier = ID0x600000ba82a0;
lineCapEnd = 2;
lineCapStart = 1;
strokeHeight = 120;
strokeWidth = 120;
};
closed = 0;
nodes = (
(1224,500,l),
(1224,6,l)
);
},
{
attr = {
fillColor = (0,255);
identifier = ID0x600000ba82a0;
lineCapEnd = 1;
lineCapStart = 2;
strokeHeight = 120;
strokeWidth = 120;
};
closed = 0;
nodes = (
(1224,1394,l),
(1224,900,l)
);
}
);
width = 1409;
},
{
layerId = "FF87E3F2-B049-41CB-BF2F-09DB15105515";
width = 600;
}
);
metricLeft = F;
metricRight = I;
unicode = 64257;
},
{
color = 4;
glyphname = fl;
kernLeft = F;
kernRight = L;
lastChange = "2022-05-29 23:18:22 +0000";
layers = (
{
layerId = m01;
width = 600;
},
{
anchors = (
{
name = bottom_1;
pos = (545,0);
},
{
name = bottom_2;
pos = (1658,0);
},
{
name = center_2;
pos = (1658,700);
},
{
name = top_1;
pos = (565,1400);
},
{
name = top_2;
pos = (1230,1400);
},
{
name = topright_2;
pos = (2231,1400);
}
);
layerId = "19FA402B-9607-46D9-AAD6-815AECBA5B6B";
shapes = (
{
attr = {
fillColor = (0,255);
identifier = ID0x600000ba80e0;
lineCapEnd = "3";
lineCapStart = "1";
strokeHeight = 120;
strokeWidth = 120;
};
closed = 0;
nodes = (
(185,60,l),
(185,640,l)
);
},
{
attr = {
fillColor = (0,255);
identifier = ID0x600000ba80e0;
lineCapEnd = "1";
strokeHeight = 120;
strokeWidth = 120;
};
closed = 0;
nodes = (
(1229,1340,l),
(185,1340,l)
);
},
{
attr = {
fillColor = (0,255);
identifier = ID0x600000ba80e0;
lineCapEnd = "2";
lineCapStart = "1";
strokeHeight = 120;
strokeWidth = 120;
};
closed = 0;
nodes = (
(185,700,l),
(908,700,l)
);
},
{
attr = {
fillColor = (0,255);
identifier = ID0x600000ba8460;
lineCapEnd = 2;
lineCapStart = 2;
strokeHeight = 120;
strokePos = 1;
strokeWidth = 120;
};
closed = 0;
nodes = (
(1170,4,l),
(2185,4,l)
);
},
{
attr = {
fillColor = (0,255);
identifier = ID0x600000ba8460;
lineCapEnd = 1;
lineCapStart = 2;
strokeHeight = 120;
strokePos = 1;
strokeWidth = 120;
};
closed = 0;
nodes = (
(1170,1394,l),
(1170,402,l)
);
}
);
width = 2261;
},
{
layerId = "FF87E3F2-B049-41CB-BF2F-09DB15105515";
width = 600;
}
);
metricLeft = F;
metricRight = L;
unicode = 64258;
},
{
color = 8;
glyphname = ordfeminine;
lastChange = "2022-05-29 23:18:29 +0000";
layers = (
{
layerId = m01;
width = 600;
},
{
layerId = "19FA402B-9607-46D9-AAD6-815AECBA5B6B";
shapes = (
{
attr = {
fillColor = (0,255);
lineCapEnd = "2";
lineCapStart = "2";
strokeHeight = 120;
strokeWidth = 120;
};
closed = 0;
nodes = (
(351,1390,l),
(588,837,l)
);
},
{
attr = {
fillColor = (0,255);
lineCapEnd = "2";
lineCapStart = "2";
strokeHeight = 120;
strokeWidth = 120;
};
closed = 0;
nodes = (
(228,1118,l),
(109,837,l)
);
}
);
width = 697;
},
{
layerId = "FF87E3F2-B049-41CB-BF2F-09DB15105515";
width = 600;
}
);
metricLeft = A;
metricRight = A;
unicode = 170;
},
{
color = 8;
glyphname = ordmasculine;
lastChange = "2022-05-29 23:18:29 +0000";
layers = (
{
layerId = m01;
width = 600;
},
{
layerId = "19FA402B-9607-46D9-AAD6-815AECBA5B6B";
shapes = (
{
closed = 1;
nodes = (
(185,1259,o),
(212,1286,o),
(212,1318,cs),
(212,1351,o),
(185,1378,o),
(153,1378,cs),
(120,1378,o),
(93,1351,o),
(93,1318,cs),
(93,1286,o),
(120,1259,o),
(153,1259,cs)
);
},
{
attr = {
lineCapEnd = "1";
lineCapStart = "1";
strokeHeight = 120;
strokePos = 0;
strokeWidth = 120;
};
closed = 0;
nodes = (
(190,1119,l),
(190,1030,o),
(262,959,o),
(351,959,cs),
(440,959,o),
(511,1030,o),
(511,1119,cs),
(511,1208,o),
(440,1280,o),
(351,1280,c)
);
}
);
width = 701;
},
{
layerId = "FF87E3F2-B049-41CB-BF2F-09DB15105515";
width = 600;
}
);
metricLeft = A;
metricRight = A;
unicode = 186;
},
{
color = 4;
glyphname = Delta;
lastChange = "2022-05-29 23:18:35 +0000";
layers = (
{
layerId = m01;
width = 1800;
},
{
layerId = "19FA402B-9607-46D9-AAD6-815AECBA5B6B";
shapes = (
{
attr = {
fillColor = (0,255);
lineCapEnd = 2;
strokeHeight = 120;
strokePos = 0;
strokeWidth = 120;
};
closed = 0;
nodes = (
(74,82,l),
(490,963,l)
);
},
{
attr = {
fillColor = (0,255);
lineCapEnd = 2;
lineCapStart = 2;
strokeHeight = 120;
strokeWidth = 120;
};
closed = 0;
nodes = (
(1148,339,l),
(682,1388,l)
);
},
{
attr = {
fillColor = (0,255);
lineCapEnd = 2;
lineCapStart = 2;
strokeHeight = 120;
strokePos = 1;
strokeWidth = 120;
};
closed = 0;
nodes = (
(76,0,l),
(1296,0,l)
);
}
);
width = 1372;
},
{
layerId = "FF87E3F2-B049-41CB-BF2F-09DB15105515";
width = 600;
}
);
metricLeft = A;
metricRight = A;
unicode = 916;
},
{
color = 4;
glyphname = Omega;
lastChange = "2022-05-29 23:18:35 +0000";
layers = (
{
layerId = m01;
width = 1800;
},
{
layerId = "19FA402B-9607-46D9-AAD6-815AECBA5B6B";
shapes = (
{
attr = {
fillColor = (0,255);
lineCapEnd = "2";
lineCapStart = "2";
strokeHeight = 120;
strokePos = "1";
strokeWidth = 120;
};
closed = 0;
nodes = (
(76,4,l),
(1170,4,l)
);
},
{
attr = {
strokeHeight = 120;
strokePos = 0;
strokeWidth = 120;
};
closed = 1;
nodes = (
(844,481,o),
(1023,660,o),
(1023,881,cs),
(1023,1101,o),
(844,1280,o),
(624,1280,cs),
(403,1280,o),
(224,1101,o),
(224,881,cs),
(224,660,o),
(403,481,o),
(624,481,cs)
);
}
);
width = 1246;
},
{
layerId = "FF87E3F2-B049-41CB-BF2F-09DB15105515";
width = 600;
}
);
metricLeft = A;
metricRight = A;
unicode = 937;
},
{
color = 4;
glyphname = pi;
lastChange = "2022-05-29 23:18:35 +0000";
layers = (
{
layerId = m01;
width = 1800;
},
{
layerId = "19FA402B-9607-46D9-AAD6-815AECBA5B6B";
shapes = (
{
attr = {
fillColor = (0,255);
identifier = ID0x60000ffd02a0;
lineCapEnd = "2";
lineCapStart = "2";
strokeHeight = 120;
strokeWidth = 120;
};
closed = 0;
nodes = (
(347,645,l),
(347,6,l)
);
},
{
attr = {
identifier = ID0x60000ffd02a0;
lineCapEnd = "3";
lineCapStart = "1";
strokeHeight = 120;
strokePos = 0;
strokeWidth = 120;
};
closed = 0;
nodes = (
(130,1000,l),
(826,1000,l)
);
},
{
attr = {
lineCapEnd = 1;
lineCapStart = 1;
strokeHeight = 120;
strokePos = 0;
strokeWidth = 120;
};
closed = 0;
nodes = (
(946,940,l),
(946,277,ls),
(946,190,o),
(1016,120,o),
(1103,120,c)
);
}
);
width = 1233;
},
{
layerId = "FF87E3F2-B049-41CB-BF2F-09DB15105515";
width = 600;
}
);
metricLeft = A;
metricRight = A;
unicode = 960;
},
{
color = 1;
glyphname = zero;
lastChange = "2022-05-29 23:17:27 +0000";
layers = (
{
layerId = m01;
width = 600;
},
{
layerId = "19FA402B-9607-46D9-AAD6-815AECBA5B6B";
shapes = (
{
attr = {
fillColor = (0,255);
lineCapEnd = 1;
lineCapStart = 1;
strokeHeight = 120;
strokeWidth = 120;
};
closed = 0;
nodes = (
(299,601,l),
(597,799,l)
);
},
{
attr = {
lineCapEnd = 1;
lineCapStart = 1;
strokeHeight = 120;
strokePos = 0;
strokeWidth = 120;
};
closed = 0;
nodes = (
(676,1048,l),
(676,1174,o),
(574,1276,o),
(448,1276,cs),
(322,1276,o),
(220,1174,o),
(220,1048,cs),
(220,799,l)
);
},
{
attr = {
lineCapEnd = "1";
lineCapStart = "1";
strokeHeight = 120;
strokePos = "0";
strokeWidth = 120;
};
closed = 0;
nodes = (
(220,352,l),
(220,226,o),
(322,124,o),
(448,124,cs),
(574,124,o),
(676,226,o),
(676,352,cs),
(676,601,l)
);
}
);
width = 896;
},
{
layerId = "FF87E3F2-B049-41CB-BF2F-09DB15105515";
width = 600;
}
);
unicode = 48;
},
{
color = 1;
glyphname = one;
lastChange = "2022-05-29 23:17:27 +0000";
layers = (
{
layerId = m01;
width = 600;
},
{
layerId = "19FA402B-9607-46D9-AAD6-815AECBA5B6B";
shapes = (
{
attr = {
fillColor = (0,255);
lineCapEnd = 1;
lineCapStart = 1;
strokeHeight = 120;
strokeWidth = 120;
};
closed = 0;
nodes = (
(231,1138,l),
(528,1342,l)
);
},
{
attr = {
fillColor = (0,255);
lineCapEnd = "2";
lineCapStart = "1";
strokeHeight = 120;
strokeWidth = 120;
};
closed = 0;
nodes = (
(528,440,l),
(528,6,l)
);
},
{
attr = {
fillColor = (0,255);
lineCapEnd = "1";
lineCapStart = "2";
strokeHeight = 120;
strokeWidth = 120;
};
closed = 0;
nodes = (
(528,1394,l),
(528,840,l)
);
}
);
width = 896;
},
{
layerId = "FF87E3F2-B049-41CB-BF2F-09DB15105515";
width = 600;
}
);
unicode = 49;
},
{
color = 1;
glyphname = two;
lastChange = "2022-05-29 23:17:27 +0000";
layers = (
{
layerId = m01;
width = 600;
},
{
layerId = "19FA402B-9607-46D9-AAD6-815AECBA5B6B";
shapes = (
{
attr = {
fillColor = (0,255);
lineCapEnd = 2;
lineCapStart = 2;
strokeHeight = 120;
strokePos = 0;
strokeWidth = 120;
};
closed = 0;
nodes = (
(790,0,l),
(106,0,l)
);
},
{
attr = {
fillColor = (0,255);
lineCapEnd = "2";
lineCapStart = "1";
strokeHeight = 120;
strokeWidth = 120;
};
closed = 0;
nodes = (
(497,501,l),
(121,20,l)
);
},
{
attr = {
lineCapEnd = "1";
lineCapStart = "1";
strokeHeight = 120;
strokePos = 0;
strokeWidth = 120;
};
closed = 0;
nodes = (
(678,1046,ls),
(678,1173,o),
(575,1276,o),
(448,1276,cs),
(321,1276,o),
(218,1173,o),
(218,1046,c)
);
}
);
width = 896;
},
{
layerId = "FF87E3F2-B049-41CB-BF2F-09DB15105515";
width = 600;
}
);
unicode = 50;
},
{
color = 1;
glyphname = three;
lastChange = "2022-05-29 23:17:27 +0000";
layers = (
{
layerId = m01;
width = 600;
},
{
layerId = "19FA402B-9607-46D9-AAD6-815AECBA5B6B";
shapes = (
{
attr = {
lineCapEnd = 1;
lineCapStart = 1;
strokeHeight = 120;
strokePos = 0;
strokeWidth = 120;
};
closed = 0;
nodes = (
(450,820,l),
(577,820,o),
(680,923,o),
(680,1050,cs),
(680,1177,o),
(577,1280,o),
(450,1280,cs),
(323,1280,o),
(220,1177,o),
(220,1050,c)
);
},
{
attr = {
lineCapEnd = "1";
lineCapStart = "1";
strokeHeight = 120;
strokePos = "0";
strokeWidth = 120;
};
closed = 0;
nodes = (
(218,354,l),
(218,227,o),
(321,124,o),
(448,124,cs),
(575,124,o),
(678,227,o),
(678,354,cs)
);
}
);
width = 896;
},
{
layerId = "FF87E3F2-B049-41CB-BF2F-09DB15105515";
width = 600;
}
);
unicode = 51;
},
{
color = 1;
glyphname = four;
lastChange = "2022-05-29 23:17:27 +0000";
layers = (
{
layerId = m01;
width = 600;
},
{
layerId = "19FA402B-9607-46D9-AAD6-815AECBA5B6B";
shapes = (
{
attr = {
fillColor = (0,255);
lineCapEnd = "1";
lineCapStart = "2";
strokeHeight = 120;
strokeWidth = 120;
};
closed = 0;
nodes = (
(570,1389,l),
(125,400,l)
);
},
{
attr = {
fillColor = (0,255);
lineCapEnd = "1";
lineCapStart = "2";
strokeHeight = 120;
strokeWidth = 120;
};
closed = 0;
nodes = (
(735,0,l),
(735,1000,l)
);
},
{
attr = {
fillColor = (0,255);
lineCapEnd = "1";
lineCapStart = "2";
strokeHeight = 120;
strokeWidth = 120;
};
closed = 0;
nodes = (
(86,400,l),
(475,400,l)
);
}
);
width = 896;
},
{
layerId = "FF87E3F2-B049-41CB-BF2F-09DB15105515";
width = 600;
}
);
unicode = 52;
},
{
color = 1;
glyphname = five;
lastChange = "2022-05-29 23:17:27 +0000";
layers = (
{
layerId = m01;
width = 600;
},
{
layerId = "19FA402B-9607-46D9-AAD6-815AECBA5B6B";
shapes = (
{
attr = {
fillColor = (0,255);
lineCapEnd = 2;
lineCapStart = "2";
strokeHeight = 120;
strokePos = 1;
strokeWidth = 120;
};
closed = 0;
nodes = (
(807,1400,l),
(107,1400,l)
);
},
{
attr = {
fillColor = (0,255);
lineCapEnd = "1";
strokeHeight = 120;
strokePos = 1;
strokeWidth = 120;
};
closed = 0;
nodes = (
(101,1338,l),
(101,930,l)
);
},
{
attr = {
lineCapEnd = "1";
lineCapStart = "1";
strokeHeight = 120;
strokePos = "0";
strokeWidth = 120;
};
closed = 0;
nodes = (
(218,354,l),
(218,227,o),
(321,124,o),
(448,124,cs),
(575,124,o),
(678,227,o),
(678,354,cs),
(678,454,ls),
(678,581,o),
(575,684,o),
(448,684,cs)
);
}
);
width = 896;
},
{
layerId = "FF87E3F2-B049-41CB-BF2F-09DB15105515";
width = 600;
}
);
unicode = 53;
},
{
color = 1;
glyphname = six;
lastChange = "2022-05-29 23:17:27 +0000";
layers = (
{
layerId = m01;
width = 600;
},
{
layerId = "19FA402B-9607-46D9-AAD6-815AECBA5B6B";
shapes = (
{
attr = {
fillColor = (0,255);
lineCapEnd = 2;
lineCapStart = 1;
strokeHeight = 120;
strokeWidth = 120;
};
closed = 0;
nodes = (
(356,910,l),
(606,1386,l)
);
},
{
attr = {
strokeHeight = 120;
strokePos = "0";
strokeWidth = 120;
};
closed = 1;
nodes = (
(573,120,o),
(676,223,o),
(676,350,cs),
(676,477,o),
(573,580,o),
(446,580,cs),
(319,580,o),
(216,477,o),
(216,350,cs),
(216,223,o),
(319,120,o),
(446,120,cs)
);
}
);
width = 896;
},
{
layerId = "FF87E3F2-B049-41CB-BF2F-09DB15105515";
width = 600;
}
);
unicode = 54;
},
{
color = 1;
glyphname = seven;
lastChange = "2022-05-29 23:17:27 +0000";
layers = (
{
layerId = m01;
width = 600;
},
{
layerId = "19FA402B-9607-46D9-AAD6-815AECBA5B6B";
shapes = (
{
attr = {
fillColor = (0,255);
lineCapEnd = 2;
lineCapStart = 2;
strokeHeight = 120;
strokePos = 0;
strokeWidth = 120;
};
closed = 0;
nodes = (
(111,1400,l),
(491,1400,l)
);
},
{
attr = {
fillColor = (0,255);
lineCapEnd = 2;
lineCapStart = 2;
strokeHeight = 120;
strokeWidth = 120;
};
closed = 0;
nodes = (
(761,1391,l),
(264,9,l)
);
}
);
width = 896;
},
{
layerId = "FF87E3F2-B049-41CB-BF2F-09DB15105515";
width = 600;
}
);
unicode = 55;
},
{
color = 1;
glyphname = eight;
lastChange = "2022-05-29 23:17:27 +0000";
layers = (
{
layerId = m01;
width = 600;
},
{
layerId = "19FA402B-9607-46D9-AAD6-815AECBA5B6B";
shapes = (
{
attr = {
lineCapEnd = "1";
lineCapStart = "1";
strokeHeight = 120;
strokeWidth = 120;
};
closed = 0;
nodes = (
(156,409,l),
(156,569,o),
(286,699,o),
(446,699,cs),
(606,699,o),
(736,829,o),
(736,989,cs)
);
},
{
attr = {
lineCapEnd = "1";
lineCapStart = "1";
strokeHeight = 120;
strokePos = "0";
strokeWidth = 120;
};
closed = 0;
nodes = (
(448,1280,l),
(321,1280,o),
(218,1177,o),
(218,1050,c)
);
},
{
attr = {
lineCapEnd = "1";
lineCapStart = "1";
strokeHeight = 120;
strokePos = "0";
strokeWidth = 120;
};
closed = 0;
nodes = (
(448,120,l),
(575,120,o),
(678,223,o),
(678,350,c)
);
}
);
width = 896;
},
{
layerId = "FF87E3F2-B049-41CB-BF2F-09DB15105515";
width = 600;
}
);
unicode = 56;
},
{
color = 1;
glyphname = nine;
lastChange = "2022-05-29 23:17:27 +0000";
layers = (
{
layerId = m01;
width = 600;
},
{
layerId = "19FA402B-9607-46D9-AAD6-815AECBA5B6B";
shapes = (
{
attr = {
fillColor = (0,255);
lineCapEnd = "2";
lineCapStart = "1";
strokeHeight = 120;
strokeWidth = 120;
};
closed = 0;
nodes = (
(540,490,l),
(290,14,l)
);
},
{
attr = {
strokeHeight = 120;
strokePos = "0";
strokeWidth = 120;
};
closed = 1;
nodes = (
(323,1280,o),
(220,1177,o),
(220,1050,cs),
(220,923,o),
(323,820,o),
(450,820,cs),
(577,820,o),
(680,923,o),
(680,1050,cs),
(680,1177,o),
(577,1280,o),
(450,1280,cs)
);
}
);
width = 896;
},
{
layerId = "FF87E3F2-B049-41CB-BF2F-09DB15105515";
width = 600;
}
);
unicode = 57;
},
{
color = 2;
glyphname = fraction;
lastChange = "2022-05-29 23:17:35 +0000";
layers = (
{
layerId = m01;
width = 600;
},
{
layerId = "19FA402B-9607-46D9-AAD6-815AECBA5B6B";
shapes = (
{
attr = {
lineCapEnd = "2";
lineCapStart = "2";
strokeHeight = 120;
strokeWidth = 120;
};
closed = 0;
nodes = (
(-405,19,l),
(751,1381,l)
);
}
);
width = 346;
},
{
layerId = "FF87E3F2-B049-41CB-BF2F-09DB15105515";
width = 600;
}
);
unicode = 8260;
},
{
color = 2;
glyphname = zerosuperior;
lastChange = "2022-05-29 23:17:35 +0000";
layers = (
{
layerId = m01;
shapes = (
{
ref = zero;
}
);
width = 600;
},
{
layerId = "19FA402B-9607-46D9-AAD6-815AECBA5B6B";
shapes = (
{
attr = {
fillColor = (0,255);
identifier = ID0x6000024447e0;
lineCapEnd = 1;
lineCapStart = 1;
strokeHeight = 100;
strokeWidth = 100;
};
closed = 0;
nodes = (
(196,963,l),
(345,1062,l)
);
},
{
attr = {
identifier = ID0x6000024447e0;
lineCapEnd = 1;
lineCapStart = 1;
strokeHeight = 100;
strokePos = 0;
strokeWidth = 100;
};
closed = 0;
nodes = (
(384,1186,l),
(384,1249,o),
(333,1300,o),
(270,1300,cs),
(207,1300,o),
(156,1249,o),
(156,1186,cs),
(156,1122,l)
);
},
{
attr = {
identifier = ID0x6000024447e0;
lineCapEnd = "1";
lineCapStart = "1";
strokeHeight = 100;
strokePos = "0";
strokeWidth = 100;
};
closed = 0;
nodes = (
(156,838,l),
(156,775,o),
(207,724,o),
(270,724,cs),
(333,724,o),
(384,775,o),
(384,838,cs),
(384,903,l)
);
}
);
width = 540;
},
{
layerId = "FF87E3F2-B049-41CB-BF2F-09DB15105515";
shapes = (
{
ref = zero;
}
);
width = 600;
}
);
unicode = 8304;
},
{
color = 2;
glyphname = onesuperior;
lastChange = "2022-05-29 23:17:35 +0000";
layers = (
{
layerId = m01;
width = 600;
},
{
layerId = "19FA402B-9607-46D9-AAD6-815AECBA5B6B";
shapes = (
{
attr = {
fillColor = (0,255);
identifier = ID0x60000241c7e0;
lineCapEnd = "2";
lineCapStart = "1";
strokeHeight = 100;
strokeWidth = 100;
};
closed = 0;
nodes = (
(304,902,l),
(304,629,l)
);
},
{
attr = {
fillColor = (0,255);
identifier = ID0x60000241c7e0;
lineCapEnd = "1";
lineCapStart = "1";
strokeHeight = 100;
strokeWidth = 100;
};
closed = 0;
nodes = (
(156,1248,l),
(304,1350,l)
);
},
{
attr = {
fillColor = (0,255);
identifier = ID0x60000241c7e0;
lineCapEnd = "1";
lineCapStart = "2";
strokeHeight = 100;
strokeWidth = 100;
};
closed = 0;
nodes = (
(304,1395,l),
(304,1102,l)
);
}
);
width = 540;
},
{
layerId = "FF87E3F2-B049-41CB-BF2F-09DB15105515";
width = 600;
}
);
unicode = 185;
},
{
color = 2;
glyphname = twosuperior;
lastChange = "2022-05-29 23:17:35 +0000";
layers = (
{
layerId = m01;
width = 600;
},
{
layerId = "19FA402B-9607-46D9-AAD6-815AECBA5B6B";
shapes = (
{
attr = {
identifier = ID0x600002450b60;
lineCapEnd = "1";
lineCapStart = "1";
strokeHeight = 100;
strokePos = 0;
strokeWidth = 100;
};
closed = 0;
nodes = (
(381,1185,l),
(381,1248,o),
(329,1300,o),
(266,1300,cs),
(203,1300,o),
(151,1248,o),
(151,1185,c)
);
},
{
attr = {
fillColor = (0,255);
identifier = ID0x600002450b60;
lineCapEnd = "2";
lineCapStart = "2";
strokeHeight = 100;
strokePos = "0";
strokeWidth = 100;
};
closed = 0;
nodes = (
(478,624,l),
(56,624,l)
);
},
{
attr = {
fillColor = (0,255);
identifier = ID0x600002450b60;
lineCapEnd = "2";
lineCapStart = "1";
strokeHeight = 100;
strokeWidth = 100;
};
closed = 0;
nodes = (
(262,882,l),
(74,641,l)
);
}
);
width = 540;
},
{
layerId = "FF87E3F2-B049-41CB-BF2F-09DB15105515";
width = 600;
}
);
unicode = 178;
},
{
color = 2;
glyphname = threesuperior;
lastChange = "2022-05-29 23:17:35 +0000";
layers = (
{
layerId = m01;
width = 600;
},
{
layerId = "19FA402B-9607-46D9-AAD6-815AECBA5B6B";
shapes = (
{
attr = {
identifier = ID0x600002422840;
lineCapEnd = 1;
lineCapStart = 1;
strokeHeight = 100;
strokePos = 0;
strokeWidth = 100;
};
closed = 0;
nodes = (
(268,1074,l),
(331,1074,o),
(383,1126,o),
(383,1189,cs),
(383,1252,o),
(331,1304,o),
(268,1304,cs),
(205,1304,o),
(153,1252,o),
(153,1189,c)
);
},
{
attr = {
identifier = ID0x600002422840;
lineCapEnd = "1";
lineCapStart = "1";
strokeHeight = 100;
strokePos = "0";
strokeWidth = 100;
};
closed = 0;
nodes = (
(152,841,l),
(152,778,o),
(204,726,o),
(267,726,cs),
(331,726,o),
(382,778,o),
(382,841,cs)
);
}
);
width = 540;
},
{
layerId = "FF87E3F2-B049-41CB-BF2F-09DB15105515";
width = 600;
}
);
unicode = 179;
},
{
color = 2;
glyphname = foursuperior;
lastChange = "2022-05-29 23:17:35 +0000";
layers = (
{
layerId = m01;
shapes = (
{
ref = four;
}
);
width = 600;
},
{
layerId = "19FA402B-9607-46D9-AAD6-815AECBA5B6B";
shapes = (
{
attr = {
fillColor = (0,255);
identifier = ID0x6000024448c0;
lineCapEnd = "1";
lineCapStart = 4;
strokeHeight = 100;
strokeWidth = 100;
};
closed = 0;
nodes = (
(107,829,l),
(268,829,l)
);
},
{
attr = {
fillColor = (0,255);
identifier = ID0x6000024448c0;
lineCapEnd = "1";
lineCapStart = "2";
strokeHeight = 100;
strokeWidth = 100;
};
closed = 0;
nodes = (
(418,629,l),
(418,1069,l)
);
},
{
attr = {
fillColor = (0,255);
identifier = ID0x6000024448c0;
lineCapEnd = "1";
lineCapStart = "2";
strokeHeight = 100;
strokeWidth = 100;
};
closed = 0;
nodes = (
(345,1390,l),
(103,829,l)
);
}
);
width = 540;
},
{
layerId = "FF87E3F2-B049-41CB-BF2F-09DB15105515";
shapes = (
{
ref = four;
}
);
width = 600;
}
);
unicode = 8308;
},
{
color = 2;
glyphname = fivesuperior;
lastChange = "2022-05-29 23:17:35 +0000";
layers = (
{
layerId = m01;
shapes = (
{
ref = five;
}
);
width = 600;
},
{
layerId = "19FA402B-9607-46D9-AAD6-815AECBA5B6B";
shapes = (
{
attr = {
fillColor = (0,255);
identifier = ID0x600002441f80;
lineCapEnd = 2;
lineCapStart = "2";
strokeHeight = 100;
strokePos = 1;
strokeWidth = 100;
};
closed = 0;
nodes = (
(484,1400,l),
(64,1400,l)
);
},
{
attr = {
fillColor = (0,255);
identifier = ID0x600002441f80;
lineCapEnd = "1";
strokeHeight = 100;
strokePos = 1;
strokeWidth = 100;
};
closed = 0;
nodes = (
(59,1353,l),
(59,1129,l)
);
},
{
attr = {
identifier = ID0x600002441f80;
lineCapEnd = "1";
lineCapStart = "1";
strokeHeight = 100;
strokePos = "0";
strokeWidth = 100;
};
closed = 0;
nodes = (
(159,841,l),
(159,778,o),
(211,726,o),
(274,726,cs),
(338,726,o),
(389,778,o),
(389,841,cs),
(389,891,ls),
(389,955,o),
(338,1006,o),
(274,1006,cs)
);
}
);
width = 540;
},
{
layerId = "FF87E3F2-B049-41CB-BF2F-09DB15105515";
shapes = (
{
ref = five;
}
);
width = 600;
}
);
unicode = 8309;
},
{
color = 2;
glyphname = sixsuperior;
lastChange = "2022-05-29 23:17:35 +0000";
layers = (
{
layerId = m01;
shapes = (
{
ref = six;
}
);
width = 600;
},
{
layerId = "19FA402B-9607-46D9-AAD6-815AECBA5B6B";
shapes = (
{
attr = {
fillColor = (0,255);
identifier = ID0x600002441ce0;
lineCapEnd = 2;
lineCapStart = 1;
strokeHeight = 100;
strokeWidth = 100;
};
closed = 0;
nodes = (
(222,1152,l),
(347,1390,l)
);
},
{
attr = {
identifier = ID0x600002441ce0;
strokeHeight = 100;
strokePos = "0";
strokeWidth = 100;
};
closed = 1;
nodes = (
(331,723,o),
(382,775,o),
(382,838,cs),
(382,902,o),
(331,953,o),
(267,953,cs),
(204,953,o),
(152,902,o),
(152,838,cs),
(152,775,o),
(204,723,o),
(267,723,cs)
);
}
);
width = 540;
},
{
layerId = "FF87E3F2-B049-41CB-BF2F-09DB15105515";
shapes = (
{
ref = six;
}
);
width = 600;
}
);
unicode = 8310;
},
{
color = 2;
glyphname = sevensuperior;
lastChange = "2022-05-29 23:17:35 +0000";
layers = (
{
layerId = m01;
shapes = (
{
ref = seven;
}
);
width = 600;
},
{
layerId = "19FA402B-9607-46D9-AAD6-815AECBA5B6B";
shapes = (
{
attr = {
fillColor = (0,255);
identifier = ID0x600002442f40;
lineCapEnd = "2";
lineCapStart = "2";
strokeHeight = 100;
strokePos = "0";
strokeWidth = 100;
};
closed = 0;
nodes = (
(83,1400,l),
(283,1400,l)
);
},
{
attr = {
fillColor = (0,255);
identifier = ID0x600002442f40;
lineCapEnd = "2";
lineCapStart = "2";
strokeHeight = 100;
strokeWidth = 100;
};
closed = 0;
nodes = (
(438,1391,l),
(184,629,l)
);
}
);
width = 540;
},
{
layerId = "FF87E3F2-B049-41CB-BF2F-09DB15105515";
shapes = (
{
ref = seven;
}
);
width = 600;
}
);
unicode = 8311;
},
{
color = 2;
glyphname = eightsuperior;
lastChange = "2022-05-29 23:17:35 +0000";
layers = (
{
layerId = m01;
shapes = (
{
ref = eight;
}
);
width = 600;
},
{
layerId = "19FA402B-9607-46D9-AAD6-815AECBA5B6B";
shapes = (
{
attr = {
identifier = ID0x6000024431e0;
lineCapEnd = "1";
lineCapStart = "1";
strokeHeight = 100;
strokeWidth = 100;
};
closed = 0;
nodes = (
(125,869,l),
(125,949,o),
(190,1014,o),
(270,1014,cs),
(350,1014,o),
(415,1079,o),
(415,1159,cs)
);
},
{
attr = {
identifier = ID0x6000024431e0;
lineCapEnd = "1";
lineCapStart = 2;
strokeHeight = 100;
strokePos = "0";
strokeWidth = 100;
};
closed = 0;
nodes = (
(250,724,l),
(314,724,o),
(365,776,o),
(365,839,c)
);
},
{
attr = {
identifier = ID0x6000024431e0;
lineCapEnd = "1";
lineCapStart = 2;
strokeHeight = 100;
strokePos = "0";
strokeWidth = 100;
};
closed = 0;
nodes = (
(250,724,l),
(314,724,o),
(365,776,o),
(365,839,c)
);
},
{
attr = {
identifier = ID0x6000024431e0;
lineCapEnd = "1";
lineCapStart = 2;
strokeHeight = 100;
strokePos = "0";
strokeWidth = 100;
};
closed = 0;
nodes = (
(290,1304,l),
(226,1304,o),
(175,1252,o),
(175,1189,c)
);
}
);
width = 540;
},
{
layerId = "FF87E3F2-B049-41CB-BF2F-09DB15105515";
shapes = (
{
ref = eight;
}
);
width = 600;
}
);
unicode = 8312;
},
{
color = 2;
glyphname = ninesuperior;
lastChange = "2022-05-29 23:17:35 +0000";
layers = (
{
layerId = m01;
shapes = (
{
ref = nine;
}
);
width = 600;
},
{
layerId = "19FA402B-9607-46D9-AAD6-815AECBA5B6B";
shapes = (
{
attr = {
fillColor = (0,255);
identifier = ID0x600002441ce0;
lineCapEnd = "2";
lineCapStart = "1";
strokeHeight = 100;
strokeWidth = 100;
};
closed = 0;
nodes = (
(318,871,l),
(193,633,l)
);
},
{
attr = {
identifier = ID0x600002441ce0;
strokeHeight = 100;
strokePos = "0";
strokeWidth = 100;
};
closed = 1;
nodes = (
(209,1300,o),
(158,1248,o),
(158,1185,cs),
(158,1121,o),
(209,1070,o),
(273,1070,cs),
(336,1070,o),
(388,1121,o),
(388,1185,cs),
(388,1248,o),
(336,1300,o),
(273,1300,cs)
);
}
);
width = 540;
},
{
layerId = "FF87E3F2-B049-41CB-BF2F-09DB15105515";
shapes = (
{
ref = nine;
}
);
width = 600;
}
);
unicode = 8313;
},
{
color = 11;
glyphname = .notdef;
lastChange = "2022-05-30 01:44:37 +0000";
layers = (
{
layerId = m01;
width = 1200;
},
{
layerId = "19FA402B-9607-46D9-AAD6-815AECBA5B6B";
shapes = (
{
attr = {
lineCapEnd = 1;
lineCapStart = 1;
strokeHeight = 120;
strokePos = "0";
strokeWidth = 120;
};
closed = 0;
nodes = (
(1012,1236,l),
(864,1297,o),
(706,1293,o),
(569,1237,c)
);
},
{
attr = {
fillColor = (0,255);
lineCapEnd = "1";
lineCapStart = "2";
strokeHeight = 120;
strokeWidth = 120;
};
closed = 0;
nodes = (
(112,1378,l),
(1430,60,l)
);
},
{
attr = {
fillColor = (0,255);
lineCapEnd = "1";
lineCapStart = "2";
strokeHeight = 120;
strokeWidth = 120;
};
closed = 0;
nodes = (
(1469,1378,l),
(961,870,l)
);
},
{
attr = {
lineCapEnd = 1;
lineCapStart = 1;
strokeHeight = 120;
strokePos = "0";
strokeWidth = 120;
};
closed = 0;
nodes = (
(569,163,l),
(706,107,o),
(864,103,o),
(1012,164,c)
);
},
{
attr = {
lineCapEnd = 1;
lineCapStart = 1;
strokeHeight = 120;
strokePos = "0";
strokeWidth = 120;
};
closed = 0;
nodes = (
(254,922,l),
(198,785,o),
(194,627,o),
(255,479,c)
);
},
{
attr = {
lineCapEnd = 1;
lineCapStart = 1;
strokeHeight = 120;
strokePos = 1;
strokeWidth = 120;
};
closed = 0;
nodes = (
(1327,922,l),
(1383,785,o),
(1387,627,o),
(1326,479,c)
);
},
{
attr = {
fillColor = (0,255);
lineCapEnd = 2;
lineCapStart = "2";
strokeHeight = 120;
strokeWidth = 120;
};
closed = 0;
nodes = (
(620,530,l),
(112,22,l)
);
}
);
width = 1581;
},
{
layerId = "FF87E3F2-B049-41CB-BF2F-09DB15105515";
width = 1200;
}
);
metricLeft = O;
metricRight = O;
},
{
color = 9;
glyphname = period;
kernLeft = PERIOD;
kernRight = PERIOD;
lastChange = "2022-05-29 23:17:49 +0000";
layers = (
{
layerId = m01;
width = 600;
},
{
layerId = "19FA402B-9607-46D9-AAD6-815AECBA5B6B";
shapes = (
{
closed = 1;
nodes = (
(216,0,o),
(250,34,o),
(250,75,cs),
(250,116,o),
(216,150,o),
(175,150,cs),
(134,150,o),
(100,116,o),
(100,75,cs),
(100,34,o),
(134,0,o),
(175,0,cs)
);
}
);
width = 350;
},
{
layerId = "FF87E3F2-B049-41CB-BF2F-09DB15105515";
width = 600;
}
);
unicode = 46;
},
{
color = 9;
glyphname = comma;
kernLeft = COMMA;
kernRight = COMMA;
lastChange = "2022-05-29 23:17:49 +0000";
layers = (
{
layerId = m01;
width = 600;
},
{
layerId = "19FA402B-9607-46D9-AAD6-815AECBA5B6B";
shapes = (
{
attr = {
lineCapEnd = 2;
lineCapStart = 2;
strokeHeight = 120;
strokeWidth = 120;
};
closed = 0;
nodes = (
(253,218,l),
(146,-185,l)
);
}
);
width = 399;
},
{
layerId = "FF87E3F2-B049-41CB-BF2F-09DB15105515";
width = 600;
}
);
metricLeft = period;
metricRight = period;
unicode = 44;
},
{
color = 9;
glyphname = colon;
kernLeft = COLON;
kernRight = COLON;
lastChange = "2022-05-29 23:17:49 +0000";
layers = (
{
layerId = m01;
width = 600;
},
{
layerId = "19FA402B-9607-46D9-AAD6-815AECBA5B6B";
shapes = (
{
closed = 1;
nodes = (
(216,945,o),
(250,979,o),
(250,1020,cs),
(250,1061,o),
(216,1095,o),
(175,1095,cs),
(134,1095,o),
(100,1061,o),
(100,1020,cs),
(100,979,o),
(134,945,o),
(175,945,cs)
);
},
{
closed = 1;
nodes = (
(216,305,o),
(250,339,o),
(250,380,cs),
(250,421,o),
(216,455,o),
(175,455,cs),
(134,455,o),
(100,421,o),
(100,380,cs),
(100,339,o),
(134,305,o),
(175,305,cs)
);
}
);
width = 350;
},
{
layerId = "FF87E3F2-B049-41CB-BF2F-09DB15105515";
width = 600;
}
);
metricLeft = period;
metricRight = period;
unicode = 58;
},
{
color = 9;
glyphname = semicolon;
kernLeft = SEMICOLON;
kernRight = SEMICOLON;
lastChange = "2022-05-29 23:17:49 +0000";
layers = (
{
layerId = m01;
width = 600;
},
{
layerId = "19FA402B-9607-46D9-AAD6-815AECBA5B6B";
shapes = (
{
attr = {
lineCapEnd = "2";
lineCapStart = "2";
strokeHeight = 120;
strokeWidth = 120;
};
closed = 0;
nodes = (
(253,218,l),
(146,-185,l)
);
},
{
closed = 1;
nodes = (
(280,731,o),
(314,765,o),
(314,806,cs),
(314,847,o),
(280,881,o),
(239,881,cs),
(198,881,o),
(164,847,o),
(164,806,cs),
(164,765,o),
(198,731,o),
(239,731,cs)
);
}
);
width = 414;
},
{
layerId = "FF87E3F2-B049-41CB-BF2F-09DB15105515";
width = 600;
}
);
metricLeft = period;
metricRight = period;
unicode = 59;
},
{
color = 9;
glyphname = exclam;
lastChange = "2022-05-29 23:17:49 +0000";
layers = (
{
layerId = m01;
width = 600;
},
{
layerId = "19FA402B-9607-46D9-AAD6-815AECBA5B6B";
shapes = (
{
attr = {
fillColor = (0,255);
lineCapEnd = "2";
lineCapStart = "2";
strokeHeight = 120;
strokeWidth = 120;
};
closed = 0;
nodes = (
(200,359,l),
(200,1394,l)
);
},
{
closed = 1;
nodes = (
(241,0,o),
(275,34,o),
(275,75,cs),
(275,116,o),
(241,150,o),
(200,150,cs),
(159,150,o),
(125,116,o),
(125,75,cs),
(125,34,o),
(159,0,o),
(200,0,cs)
);
}
);
width = 400;
},
{
layerId = "FF87E3F2-B049-41CB-BF2F-09DB15105515";
width = 600;
}
);
metricLeft = I;
metricRight = I;
unicode = 33;
},
{
color = 9;
glyphname = question;
lastChange = "2022-05-29 23:17:49 +0000";
layers = (
{
layerId = m01;
width = 600;
},
{
layerId = "19FA402B-9607-46D9-AAD6-815AECBA5B6B";
shapes = (
{
attr = {
fillColor = (0,255);
lineCapEnd = 2;
lineCapStart = 2;
strokeHeight = 120;
strokeWidth = 120;
};
closed = 0;
nodes = (
(426,299,l),
(426,638,l)
);
},
{
closed = 1;
nodes = (
(467,0,o),
(501,34,o),
(501,75,cs),
(501,116,o),
(467,150,o),
(426,150,cs),
(385,150,o),
(351,116,o),
(351,75,cs),
(351,34,o),
(385,0,o),
(426,0,cs)
);
},
{
attr = {
lineCapEnd = 1;
lineCapStart = 1;
strokeHeight = 120;
strokePos = "0";
strokeWidth = 120;
};
closed = 0;
nodes = (
(625,799,l),
(736,909,o),
(736,1087,o),
(625,1198,cs),
(515,1308,o),
(337,1308,o),
(227,1198,c)
);
}
);
width = 953;
},
{
layerId = "FF87E3F2-B049-41CB-BF2F-09DB15105515";
width = 600;
}
);
metricLeft = asterisk;
metricRight = asterisk;
unicode = 63;
},
{
color = 9;
glyphname = asterisk;
lastChange = "2022-05-29 23:17:49 +0000";
layers = (
{
layerId = m01;
width = 600;
},
{
layerId = "19FA402B-9607-46D9-AAD6-815AECBA5B6B";
shapes = (
{
attr = {
fillColor = (0,255);
lineCapEnd = "2";
lineCapStart = "2";
strokeHeight = 120;
strokeWidth = 120;
};
closed = 0;
nodes = (
(678,926,l),
(138,1238,l)
);
},
{
closed = 1;
nodes = (
(374,885,o),
(347,858,o),
(347,825,cs),
(347,792,o),
(374,765,o),
(407,765,cs),
(440,765,o),
(467,792,o),
(467,825,cs),
(467,858,o),
(440,885,o),
(407,885,cs)
);
},
{
closed = 1;
nodes = (
(152,1013,o),
(125,986,o),
(125,953,cs),
(125,920,o),
(152,893,o),
(185,893,cs),
(218,893,o),
(245,920,o),
(245,953,cs),
(245,986,o),
(218,1013,o),
(185,1013,cs)
);
},
{
closed = 1;
nodes = (
(375,1400,o),
(348,1373,o),
(348,1340,cs),
(348,1307,o),
(375,1280,o),
(408,1280,cs),
(441,1280,o),
(468,1307,o),
(468,1340,cs),
(468,1373,o),
(441,1400,o),
(408,1400,cs)
);
},
{
closed = 1;
nodes = (
(598,1271,o),
(571,1244,o),
(571,1211,cs),
(571,1178,o),
(598,1151,o),
(631,1151,cs),
(664,1151,o),
(691,1178,o),
(691,1211,cs),
(691,1244,o),
(664,1271,o),
(631,1271,cs)
);
}
);
width = 816;
},
{
layerId = "FF87E3F2-B049-41CB-BF2F-09DB15105515";
width = 600;
}
);
metricLeft = I;
metricRight = I;
unicode = 42;
},
{
color = 9;
glyphname = numbersign;
lastChange = "2022-05-29 23:17:49 +0000";
layers = (
{
layerId = m01;
width = 600;
},
{
layerId = "19FA402B-9607-46D9-AAD6-815AECBA5B6B";
shapes = (
{
attr = {
lineCapEnd = "2";
lineCapStart = "2";
strokeHeight = 120;
strokeWidth = 120;
};
closed = 0;
nodes = (
(836,1394,l),
(836,6,l)
);
},
{
attr = {
lineCapEnd = "2";
lineCapStart = "2";
strokeHeight = 120;
strokeWidth = 120;
};
closed = 0;
nodes = (
(420,1394,l),
(420,6,l)
);
},
{
closed = 1;
nodes = (
(1103,893,o),
(1130,920,o),
(1130,953,cs),
(1130,986,o),
(1103,1013,o),
(1070,1013,cs),
(1037,1013,o),
(1010,986,o),
(1010,953,cs),
(1010,920,o),
(1037,893,o),
(1070,893,cs)
);
},
{
closed = 1;
nodes = (
(1037,507,o),
(1010,480,o),
(1010,447,cs),
(1010,414,o),
(1037,387,o),
(1070,387,cs),
(1103,387,o),
(1130,414,o),
(1130,447,cs),
(1130,480,o),
(1103,507,o),
(1070,507,cs)
);
},
{
closed = 1;
nodes = (
(218,893,o),
(245,920,o),
(245,953,cs),
(245,986,o),
(218,1013,o),
(185,1013,cs),
(152,1013,o),
(125,986,o),
(125,953,cs),
(125,920,o),
(152,893,o),
(185,893,cs)
);
},
{
closed = 1;
nodes = (
(152,507,o),
(125,480,o),
(125,447,cs),
(125,414,o),
(152,387,o),
(185,387,cs),
(218,387,o),
(245,414,o),
(245,447,cs),
(245,480,o),
(218,507,o),
(185,507,cs)
);
}
);
width = 1255;
},
{
layerId = "FF87E3F2-B049-41CB-BF2F-09DB15105515";
width = 600;
}
);
metricLeft = asterisk;
metricRight = asterisk;
unicode = 35;
},
{
color = 9;
glyphname = slash;
lastChange = "2022-05-29 23:17:49 +0000";
layers = (
{
layerId = m01;
width = 600;
},
{
layerId = "19FA402B-9607-46D9-AAD6-815AECBA5B6B";
shapes = (
{
attr = {
lineCapEnd = "2";
lineCapStart = "2";
strokeHeight = 120;
strokeWidth = 120;
};
closed = 0;
nodes = (
(168,10,l),
(624,1390,l)
);
}
);
width = 792;
},
{
layerId = "FF87E3F2-B049-41CB-BF2F-09DB15105515";
width = 600;
}
);
metricLeft = asterisk;
metricRight = asterisk;
unicode = 47;
},
{
color = 9;
glyphname = hyphen;
kernLeft = HYPHEN;
lastChange = "2022-05-29 23:17:49 +0000";
layers = (
{
layerId = m01;
width = 600;
},
{
layerId = "19FA402B-9607-46D9-AAD6-815AECBA5B6B";
shapes = (
{
attr = {
fillColor = (0,255);
lineCapEnd = "2";
lineCapStart = "2";
strokeHeight = 120;
strokeWidth = 120;
};
closed = 0;
nodes = (
(131,700,l),
(580,700,l)
);
}
);
width = 711;
},
{
layerId = "FF87E3F2-B049-41CB-BF2F-09DB15105515";
width = 600;
}
);
metricLeft = asterisk;
metricRight = asterisk;
unicode = 45;
},
{
color = 9;
glyphname = emdash;
kernLeft = HYPHEN;
lastChange = "2022-05-29 23:17:49 +0000";
layers = (
{
layerId = m01;
width = 600;
},
{
layerId = "19FA402B-9607-46D9-AAD6-815AECBA5B6B";
shapes = (
{
attr = {
fillColor = (0,255);
lineCapEnd = "2";
lineCapStart = "2";
strokeHeight = 120;
strokeWidth = 120;
};
closed = 0;
nodes = (
(131,700,l),
(1451,700,l)
);
}
);
width = 1582;
},
{
layerId = "FF87E3F2-B049-41CB-BF2F-09DB15105515";
width = 600;
}
);
metricLeft = asterisk;
metricRight = asterisk;
unicode = 8212;
},
{
color = 9;
glyphname = underscore;
lastChange = "2022-05-29 23:17:49 +0000";
layers = (
{
layerId = m01;
width = 600;
},
{
layerId = "19FA402B-9607-46D9-AAD6-815AECBA5B6B";
shapes = (
{
attr = {
fillColor = (0,255);
lineCapEnd = "2";
lineCapStart = "2";
strokeHeight = 120;
strokePos = 0;
strokeWidth = 120;
};
closed = 0;
nodes = (
(131,0,l),
(1226,0,l)
);
}
);
width = 1357;
},
{
layerId = "FF87E3F2-B049-41CB-BF2F-09DB15105515";
width = 600;
}
);
metricLeft = asterisk;
metricRight = asterisk;
unicode = 95;
},
{
color = 9;
glyphname = parenleft;
lastChange = "2022-05-29 23:17:49 +0000";
layers = (
{
layerId = m01;
width = 600;
},
{
layerId = "19FA402B-9607-46D9-AAD6-815AECBA5B6B";
shapes = (
{
attr = {
lineCapEnd = 2;
lineCapStart = 2;
strokeHeight = 100;
strokePos = 0;
strokeWidth = 100;
};
closed = 0;
nodes = (
(371,1336,l),
(131,1140,o),
(131,260,o),
(371,64,cs)
);
}
);
width = 482;
},
{
layerId = "FF87E3F2-B049-41CB-BF2F-09DB15105515";
width = 600;
}
);
metricLeft = O;
metricRight = asterisk;
unicode = 40;
},
{
color = 9;
glyphname = braceleft;
lastChange = "2022-05-29 23:17:49 +0000";
layers = (
{
layerId = m01;
width = 600;
},
{
layerId = "19FA402B-9607-46D9-AAD6-815AECBA5B6B";
shapes = (
{
attr = {
lineCapEnd = 1;
lineCapStart = 1;
strokeHeight = 120;
strokePos = 0;
strokeWidth = 120;
};
closed = 0;
nodes = (
(565,1280,l),
(468,1280,o),
(391,1202,o),
(391,1107,cs),
(391,878,l)
);
},
{
closed = 1;
nodes = (
(218,640,o),
(245,667,o),
(245,700,cs),
(245,733,o),
(218,760,o),
(185,760,cs),
(152,760,o),
(125,733,o),
(125,700,cs),
(125,667,o),
(152,640,o),
(185,640,cs)
);
},
{
attr = {
lineCapEnd = "1";
lineCapStart = "1";
strokeHeight = 120;
strokePos = "0";
strokeWidth = 120;
};
closed = 0;
nodes = (
(391,522,l),
(391,293,ls),
(391,198,o),
(468,120,o),
(565,120,c)
);
}
);
width = 750;
},
{
layerId = "FF87E3F2-B049-41CB-BF2F-09DB15105515";
width = 600;
}
);
metricLeft = asterisk;
metricRight = asterisk;
unicode = 123;
},
{
color = 9;
glyphname = bracketleft;
lastChange = "2022-05-29 23:17:49 +0000";
layers = (
{
layerId = m01;
width = 600;
},
{
layerId = "19FA402B-9607-46D9-AAD6-815AECBA5B6B";
shapes = (
{
attr = {
fillColor = (0,255);
identifier = ID0x60000ffd4000;
lineCapEnd = "1";
lineCapStart = "1";
strokeHeight = 120;
strokePos = "1";
strokeWidth = 120;
};
closed = 0;
nodes = (
(160,0,l),
(455,0,l)
);
},
{
attr = {
fillColor = (0,255);
identifier = ID0x60000ffd4000;
lineCapEnd = "2";
lineCapStart = "2";
strokeHeight = 120;
strokeWidth = 120;
};
closed = 0;
nodes = (
(160,1084,l),
(160,6,l)
);
},
{
attr = {
fillColor = (0,255);
identifier = ID0x60000ffd4000;
lineCapEnd = "1";
lineCapStart = "1";
strokeHeight = 120;
strokePos = 0;
strokeWidth = 120;
};
closed = 0;
nodes = (
(160,1400,l),
(455,1400,l)
);
}
);
width = 640;
},
{
layerId = "FF87E3F2-B049-41CB-BF2F-09DB15105515";
width = 600;
}
);
metricLeft = period;
metricRight = asterisk;
unicode = 91;
},
{
color = 9;
glyphname = guilsinglleft;
lastChange = "2022-05-29 23:17:49 +0000";
layers = (
{
layerId = m01;
width = 600;
},
{
layerId = "19FA402B-9607-46D9-AAD6-815AECBA5B6B";
shapes = (
{
attr = {
fillColor = (0,255);
identifier = ID0x600000bfa920;
lineCapEnd = "2";
lineCapStart = "2";
strokeHeight = 120;
strokeWidth = 120;
};
closed = 0;
nodes = (
(144,703,l),
(614,1107,l)
);
},
{
attr = {
fillColor = (0,255);
identifier = ID0x600000bfa920;
lineCapEnd = "2";
lineCapStart = "2";
strokeHeight = 120;
strokeWidth = 120;
};
closed = 0;
nodes = (
(303,556,l),
(614,293,l)
);
}
);
width = 758;
},
{
layerId = "FF87E3F2-B049-41CB-BF2F-09DB15105515";
width = 600;
}
);
metricLeft = asterisk;
metricRight = asterisk;
unicode = 8249;
},
{
color = 9;
glyphname = quotesingle;
kernLeft = QUOTE;
kernRight = QUOTE;
lastChange = "2022-05-29 23:17:49 +0000";
layers = (
{
layerId = m01;
width = 600;
},
{
layerId = "19FA402B-9607-46D9-AAD6-815AECBA5B6B";
shapes = (
{
attr = {
fillColor = (0,255);
lineCapEnd = "2";
lineCapStart = "2";
strokeHeight = 120;
strokeWidth = 120;
};
closed = 0;
nodes = (
(185,1171,l),
(185,1594,l)
);
}
);
width = 370;
},
{
layerId = "FF87E3F2-B049-41CB-BF2F-09DB15105515";
width = 600;
}
);
metricLeft = asterisk;
metricRight = asterisk;
unicode = 39;
},
{
color = 8;
glyphname = florin;
lastChange = "2022-05-29 23:17:55 +0000";
layers = (
{
layerId = m01;
width = 600;
},
{
layerId = "19FA402B-9607-46D9-AAD6-815AECBA5B6B";
shapes = (
{
attr = {
fillColor = (0,255);
lineCapEnd = "1";
lineCapStart = "1";
strokeHeight = 120;
strokePos = "0";
strokeWidth = 120;
};
closed = 0;
nodes = (
(761,1280,l),
(635,1280,o),
(533,1178,o),
(533,1052,c)
);
},
{
attr = {
fillColor = (0,255);
lineCapEnd = "1";
lineCapStart = "1";
strokeHeight = 120;
strokePos = 0;
strokeWidth = 120;
};
closed = 0;
nodes = (
(185,-280,l),
(311,-280,o),
(413,-178,o),
(413,-52,cs),
(413,342,l)
);
},
{
attr = {
fillColor = (0,255);
lineCapEnd = "2";
lineCapStart = "2";
strokeHeight = 120;
strokeWidth = 120;
};
closed = 0;
nodes = (
(770,700,l),
(176,700,l)
);
}
);
width = 946;
},
{
layerId = "FF87E3F2-B049-41CB-BF2F-09DB15105515";
width = 600;
}
);
metricLeft = asterisk;
metricRight = asterisk;
unicode = 402;
},
{
color = 8;
glyphname = at;
lastChange = "2022-05-29 23:17:55 +0000";
layers = (
{
layerId = m01;
width = 600;
},
{
layerId = "19FA402B-9607-46D9-AAD6-815AECBA5B6B";
shapes = (
{
attr = {
strokeHeight = 120;
strokePos = "0";
strokeWidth = 120;
};
closed = 1;
nodes = (
(898,490,o),
(992,584,o),
(992,700,cs),
(992,816,o),
(898,910,o),
(782,910,cs),
(666,910,o),
(572,816,o),
(572,700,cs),
(572,584,o),
(666,490,o),
(782,490,cs)
);
},
{
closed = 0;
nodes = (
(790,120,l)
);
},
{
attr = {
lineCapEnd = 2;
lineCapStart = 2;
strokeHeight = 120;
strokePos = 0;
strokeWidth = 120;
};
closed = 0;
nodes = (
(1201,1110,l),
(974,1337,o),
(606,1337,o),
(380,1111,cs),
(153,884,o),
(153,516,o),
(380,289,cs),
(493,176,o),
(641,120,o),
(790,120,cs),
(1235,120,l)
);
}
);
width = 1389;
},
{
layerId = "FF87E3F2-B049-41CB-BF2F-09DB15105515";
width = 600;
}
);
metricLeft = O;
metricRight = asterisk;
unicode = 64;
},
{
color = 8;
glyphname = ampersand;
lastChange = "2022-05-29 23:17:55 +0000";
layers = (
{
layerId = m01;
width = 2400;
},
{
layerId = "19FA402B-9607-46D9-AAD6-815AECBA5B6B";
shapes = (
{
attr = {
fillColor = (0,255);
identifier = ID0x60000ffeaae0;
lineCapEnd = "2";
lineCapStart = "2";
strokeHeight = 120;
strokePos = 0;
strokeWidth = 120;
};
closed = 0;
nodes = (
(953,880,l),
(953,0,l)
);
},
{
attr = {
fillColor = (0,255);
identifier = ID0x60000243ddc0;
lineCapEnd = "2";
lineCapStart = 2;
strokeHeight = 120;
strokePos = 1;
strokeWidth = 120;
};
closed = 0;
nodes = (
(683,760,l),
(543,760,ls),
(399,760,o),
(283,876,o),
(283,1020,cs),
(283,1164,o),
(399,1280,o),
(543,1280,cs),
(947,1280,l)
);
},
{
attr = {
fillColor = (0,255);
identifier = ID0x60000243ddc0;
lineCapEnd = "2";
lineCapStart = "2";
strokeHeight = 120;
strokePos = 0;
strokeWidth = 120;
};
closed = 0;
nodes = (
(693,640,l),
(443,640,ls),
(299,640,o),
(183,524,o),
(183,380,cs),
(183,236,o),
(299,120,o),
(443,120,cs),
(703,120,l)
);
}
);
width = 1078;
},
{
layerId = "FF87E3F2-B049-41CB-BF2F-09DB15105515";
width = 1800;
}
);
metricLeft = "=|B";
metricRight = H;
unicode = 38;
},
{
color = 8;
glyphname = paragraph;
lastChange = "2022-05-29 23:17:55 +0000";
layers = (
{
layerId = m01;
width = 600;
},
{
layerId = "19FA402B-9607-46D9-AAD6-815AECBA5B6B";
shapes = (
{
attr = {
fillColor = (0,255);
lineCapEnd = "2";
lineCapStart = "2";
strokeHeight = 120;
strokeWidth = 120;
};
closed = 0;
nodes = (
(949,1394,l),
(949,6,l)
);
},
{
attr = {
fillColor = (0,255);
lineCapEnd = "2";
lineCapStart = "2";
strokeHeight = 120;
strokeWidth = 120;
};
closed = 0;
nodes = (
(649,1394,l),
(649,6,l)
);
},
{
attr = {
lineCapEnd = 2;
lineCapStart = 2;
strokeHeight = 120;
strokePos = "0";
strokeWidth = 120;
};
closed = 0;
nodes = (
(475,1280,l),
(348,1280,o),
(245,1177,o),
(245,1050,cs),
(245,923,o),
(348,820,o),
(475,820,c)
);
}
);
width = 1109;
},
{
layerId = "FF87E3F2-B049-41CB-BF2F-09DB15105515";
width = 600;
}
);
metricLeft = asterisk;
metricRight = period;
unicode = 182;
},
{
color = 8;
glyphname = section;
lastChange = "2022-05-29 23:17:55 +0000";
layers = (
{
layerId = m01;
width = 600;
},
{
layerId = "19FA402B-9607-46D9-AAD6-815AECBA5B6B";
shapes = (
{
attr = {
fillColor = (0,255);
lineCapEnd = "1";
lineCapStart = "2";
strokeHeight = 120;
strokePos = "0";
strokeWidth = 120;
};
closed = 0;
nodes = (
(825,1280,l),
(479,1280,l),
(353,1280,o),
(251,1178,o),
(251,1052,c)
);
},
{
attr = {
fillColor = (0,255);
lineCapEnd = "1";
lineCapStart = "2";
strokeHeight = 120;
strokePos = "0";
strokeWidth = 120;
};
closed = 0;
nodes = (
(131,-280,l),
(477,-280,l),
(603,-280,o),
(705,-178,o),
(705,-52,c)
);
},
{
attr = {
strokePos = 0;
strokeWidth = 120;
};
closed = 1;
nodes = (
(603,273,o),
(705,375,o),
(705,500,cs),
(705,625,o),
(603,727,o),
(478,727,cs),
(353,727,o),
(251,625,o),
(251,500,cs),
(251,375,o),
(353,273,o),
(478,273,cs)
);
}
);
width = 956;
},
{
layerId = "FF87E3F2-B049-41CB-BF2F-09DB15105515";
width = 600;
}
);
metricLeft = asterisk;
metricRight = asterisk;
unicode = 167;
},
{
color = 8;
glyphname = copyright;
lastChange = "2022-05-29 23:17:55 +0000";
layers = (
{
layerId = m01;
width = 600;
},
{
layerId = "19FA402B-9607-46D9-AAD6-815AECBA5B6B";
shapes = (
{
closed = 1;
nodes = (
(931,1052,o),
(902,1026,o),
(902,992,cs),
(902,959,o),
(931,932,o),
(962,932,cs),
(995,932,o),
(1022,959,o),
(1022,992,cs),
(1022,1026,o),
(995,1052,o),
(962,1052,cs)
);
},
{
attr = {
fillColor = (0,255);
identifier = ID0x600002443e20;
lineCapEnd = 2;
lineCapStart = 1;
strokeHeight = 120;
strokePos = 0;
strokeWidth = 120;
};
closed = 0;
nodes = (
(827,932,l),
(683,932,o),
(566,815,o),
(566,671,cs),
(566,527,o),
(683,410,o),
(827,410,cs),
(986,410,l)
);
},
{
angle = -90;
pos = (90,1459);
ref = O;
}
);
width = 1580;
},
{
layerId = "FF87E3F2-B049-41CB-BF2F-09DB15105515";
width = 600;
}
);
metricLeft = O;
metricRight = O;
unicode = 169;
},
{
color = 8;
glyphname = registered;
lastChange = "2022-05-29 23:17:55 +0000";
layers = (
{
layerId = m01;
width = 600;
},
{
layerId = "19FA402B-9607-46D9-AAD6-815AECBA5B6B";
shapes = (
{
attr = {
fillColor = (0,255);
identifier = ID0x60000245d0a0;
lineCapEnd = 2;
lineCapStart = 1;
strokeHeight = 120;
strokeWidth = 120;
};
closed = 0;
nodes = (
(566,672,l),
(566,378,l)
);
},
{
attr = {
fillColor = (0,255);
identifier = ID0x60000245d0a0;
lineCapEnd = 2;
lineCapStart = 1;
strokeHeight = 120;
strokeWidth = 120;
};
closed = 0;
nodes = (
(771,639,l),
(991,383,l)
);
},
{
attr = {
fillColor = (0,255);
identifier = ID0x60000245d0a0;
lineCapEnd = "1";
lineCapStart = 1;
strokeHeight = 120;
strokePos = "1";
strokeWidth = 120;
};
closed = 0;
nodes = (
(566,949,l),
(808,949,ls),
(877,949,o),
(933,893,o),
(933,825,cs),
(933,755,o),
(877,699,o),
(808,699,cs),
(771,699,l)
);
},
{
ref = O;
}
);
width = 1580;
},
{
layerId = "FF87E3F2-B049-41CB-BF2F-09DB15105515";
width = 600;
}
);
metricLeft = O;
metricRight = O;
unicode = 174;
},
{
color = 8;
glyphname = trademark;
lastChange = "2022-05-29 23:17:55 +0000";
layers = (
{
layerId = m01;
width = 600;
},
{
layerId = "19FA402B-9607-46D9-AAD6-815AECBA5B6B";
shapes = (
{
attr = {
fillColor = (0,255);
identifier = ID0x60000243ee60;
lineCapStart = 2;
strokeHeight = 120;
strokeWidth = 120;
};
closed = 0;
nodes = (
(392,738,l),
(392,1344,l)
);
},
{
attr = {
fillColor = (0,255);
identifier = ID0x60000243ee60;
lineCapEnd = 2;
lineCapStart = 2;
strokeHeight = 120;
strokePos = 1;
strokeWidth = 120;
};
closed = 0;
nodes = (
(446,1400,l),
(131,1400,l)
);
},
{
attr = {
fillColor = (0,255);
identifier = ID0x60000243ee60;
lineCapEnd = "2";
lineCapStart = "2";
strokeHeight = 120;
strokePos = "1";
strokeWidth = 120;
};
closed = 0;
nodes = (
(653,1400,l),
(504,1400,l)
);
},
{
attr = {
fillColor = (0,255);
identifier = ID0x60000243ebc0;
lineCapEnd = 2;
lineCapStart = 2;
strokeHeight = 120;
strokePos = 0;
strokeWidth = 120;
};
closed = 0;
nodes = (
(732,738,l),
(732,1397,l)
);
},
{
attr = {
fillColor = (0,255);
identifier = ID0x60000243ebc0;
lineCapEnd = 2;
lineCapStart = 2;
strokeHeight = 120;
strokePos = 1;
strokeWidth = 120;
};
closed = 0;
nodes = (
(1359,738,l),
(1359,1397,l)
);
},
{
attr = {
fillColor = (0,255);
identifier = ID0x60000243ebc0;
lineCapEnd = 1;
lineCapStart = 2;
strokeHeight = 120;
strokeWidth = 120;
};
closed = 0;
nodes = (
(756,1383,l),
(1045,1066,l)
);
}
);
width = 1484;
},
{
layerId = "FF87E3F2-B049-41CB-BF2F-09DB15105515";
width = 600;
}
);
metricLeft = asterisk;
metricRight = asterisk;
unicode = 8482;
},
{
color = 8;
glyphname = bar;
lastChange = "2022-05-29 23:17:55 +0000";
layers = (
{
layerId = m01;
width = 600;
},
{
layerId = "19FA402B-9607-46D9-AAD6-815AECBA5B6B";
shapes = (
{
attr = {
fillColor = (0,255);
lineCapEnd = 2;
lineCapStart = "2";
strokeHeight = 120;
strokeWidth = 120;
};
closed = 0;
nodes = (
(185,1394,l),
(185,6,l)
);
}
);
width = 370;
},
{
layerId = "FF87E3F2-B049-41CB-BF2F-09DB15105515";
width = 600;
}
);
metricLeft = I;
metricRight = I;
unicode = 124;
},
{
color = 8;
glyphname = brokenbar;
lastChange = "2022-05-29 23:17:55 +0000";
layers = (
{
layerId = m01;
width = 600;
},
{
layerId = "19FA402B-9607-46D9-AAD6-815AECBA5B6B";
shapes = (
{
attr = {
fillColor = (0,255);
lineCapEnd = "2";
lineCapStart = "1";
strokeHeight = 120;
strokeWidth = 120;
};
closed = 0;
nodes = (
(185,350,l),
(185,6,l)
);
},
{
attr = {
fillColor = (0,255);
lineCapEnd = "1";
lineCapStart = "2";
strokeHeight = 120;
strokeWidth = 120;
};
closed = 0;
nodes = (
(185,1394,l),
(185,1050,l)
);
}
);
width = 370;
},
{
layerId = "FF87E3F2-B049-41CB-BF2F-09DB15105515";
width = 600;
}
);
metricLeft = I;
metricRight = I;
unicode = 166;
},
{
color = 8;
glyphname = dagger;
lastChange = "2022-05-29 23:17:55 +0000";
layers = (
{
layerId = m01;
width = 600;
},
{
layerId = "19FA402B-9607-46D9-AAD6-815AECBA5B6B";
shapes = (
{
attr = {
lineCapEnd = "2";
lineCapStart = "2";
strokeHeight = 120;
strokeWidth = 120;
};
closed = 0;
nodes = (
(449,1394,l),
(449,539,l)
);
},
{
attr = {
lineCapEnd = "2";
lineCapStart = "2";
strokeHeight = 120;
strokeWidth = 120;
};
closed = 0;
nodes = (
(767,1126,l),
(574,1126,l)
);
},
{
attr = {
lineCapEnd = "2";
lineCapStart = "2";
strokeHeight = 120;
strokeWidth = 120;
};
closed = 0;
nodes = (
(324,1126,l),
(131,1126,l)
);
}
);
width = 898;
},
{
layerId = "FF87E3F2-B049-41CB-BF2F-09DB15105515";
width = 600;
}
);
metricLeft = asterisk;
metricRight = asterisk;
unicode = 8224;
},
{
color = 8;
glyphname = daggerdbl;
lastChange = "2022-05-29 23:17:55 +0000";
layers = (
{
layerId = m01;
width = 600;
},
{
layerId = "19FA402B-9607-46D9-AAD6-815AECBA5B6B";
shapes = (
{
attr = {
lineCapEnd = "2";
lineCapStart = "2";
strokeHeight = 120;
strokeWidth = 120;
};
closed = 0;
nodes = (
(449,1394,l),
(449,932,l)
);
},
{
attr = {
lineCapEnd = "2";
lineCapStart = "2";
strokeHeight = 120;
strokeWidth = 120;
};
closed = 0;
nodes = (
(767,1126,l),
(574,1126,l)
);
},
{
attr = {
lineCapEnd = "2";
lineCapStart = "2";
strokeHeight = 120;
strokeWidth = 120;
};
closed = 0;
nodes = (
(324,1126,l),
(131,1126,l)
);
},
{
attr = {
lineCapEnd = "2";
lineCapStart = "2";
strokeHeight = 120;
strokeWidth = 120;
};
closed = 0;
nodes = (
(767,807,l),
(574,807,l),
(131,807,l)
);
},
{
attr = {
lineCapEnd = "2";
lineCapStart = "2";
strokeHeight = 120;
strokeWidth = 120;
};
closed = 0;
nodes = (
(449,682,l),
(449,539,l)
);
}
);
width = 898;
},
{
layerId = "FF87E3F2-B049-41CB-BF2F-09DB15105515";
width = 600;
}
);
metricLeft = asterisk;
metricRight = asterisk;
unicode = 8225;
},
{
color = 8;
glyphname = cent;
lastChange = "2022-05-29 23:17:55 +0000";
layers = (
{
layerId = m01;
width = 1800;
},
{
layerId = "19FA402B-9607-46D9-AAD6-815AECBA5B6B";
shapes = (
{
attr = {
fillColor = (0,255);
lineCapEnd = "1";
lineCapStart = "2";
strokeHeight = 120;
strokePos = "0";
strokeWidth = 120;
};
closed = 0;
nodes = (
(822,1080,l),
(590,1080,ls),
(380,1080,o),
(210,910,o),
(210,700,cs),
(210,490,o),
(380,320,o),
(590,320,c)
);
},
{
closed = 1;
nodes = (
(801,200,o),
(828,227,o),
(828,260,cs),
(828,293,o),
(801,320,o),
(768,320,cs),
(735,320,o),
(708,293,o),
(708,260,cs),
(708,227,o),
(735,200,o),
(768,200,cs)
);
},
{
attr = {
lineCapEnd = "2";
lineCapStart = "2";
strokeHeight = 120;
strokeWidth = 120;
};
closed = 0;
nodes = (
(520,1530,l),
(520,1282,l)
);
},
{
attr = {
lineCapEnd = "2";
lineCapStart = "2";
strokeHeight = 120;
strokeWidth = 120;
};
closed = 0;
nodes = (
(520,118,l),
(520,-130,l)
);
}
);
width = 878;
},
{
layerId = "FF87E3F2-B049-41CB-BF2F-09DB15105515";
width = 600;
}
);
metricLeft = C;
metricRight = C;
unicode = 162;
},
{
color = 8;
glyphname = dollar;
lastChange = "2022-05-29 23:17:55 +0000";
layers = (
{
layerId = m01;
width = 600;
},
{
layerId = "19FA402B-9607-46D9-AAD6-815AECBA5B6B";
shapes = (
{
ref = S;
},
{
attr = {
lineCapEnd = 2;
lineCapStart = 2;
strokeHeight = 120;
strokeWidth = 120;
};
closed = 0;
nodes = (
(560,-98,l),
(560,-346,l)
);
},
{
attr = {
lineCapEnd = "2";
lineCapStart = "2";
strokeHeight = 120;
strokeWidth = 120;
};
closed = 0;
nodes = (
(560,1746,l),
(560,1498,l)
);
}
);
width = 1166;
},
{
layerId = "FF87E3F2-B049-41CB-BF2F-09DB15105515";
width = 600;
}
);
metricLeft = S;
metricRight = S;
unicode = 36;
},
{
color = 8;
glyphname = euro;
lastChange = "2022-05-29 23:17:55 +0000";
layers = (
{
layerId = m01;
width = 600;
},
{
layerId = "19FA402B-9607-46D9-AAD6-815AECBA5B6B";
shapes = (
{
attr = {
lineCapEnd = 2;
lineCapStart = 2;
strokeHeight = 120;
strokePos = 1;
strokeWidth = 120;
};
closed = 0;
nodes = (
(435,991,l),
(435,1148,o),
(563,1276,o),
(720,1276,cs),
(877,1276,o),
(1005,1148,o),
(1005,991,c)
);
},
{
attr = {
fillColor = (0,255);
lineCapEnd = "1";
lineCapStart = "1";
strokeHeight = 120;
strokeWidth = 120;
};
closed = 0;
nodes = (
(567,814,l),
(185,814,l)
);
},
{
attr = {
fillColor = (0,255);
lineCapEnd = "1";
lineCapStart = "1";
strokeHeight = 120;
strokeWidth = 120;
};
closed = 0;
nodes = (
(567,587,l),
(185,587,l)
);
},
{
attr = {
lineCapEnd = 2;
lineCapStart = 2;
strokeHeight = 120;
strokePos = "1";
strokeWidth = 120;
};
closed = 0;
nodes = (
(1005,409,l),
(1005,252,o),
(877,124,o),
(720,124,cs),
(563,124,o),
(435,252,o),
(435,409,c)
);
}
);
width = 1246;
},
{
layerId = "FF87E3F2-B049-41CB-BF2F-09DB15105515";
width = 600;
}
);
metricLeft = asterisk;
metricRight = asterisk;
unicode = 8364;
},
{
color = 8;
glyphname = sterling;
lastChange = "2022-05-29 23:17:55 +0000";
layers = (
{
layerId = m01;
width = 600;
},
{
layerId = "19FA402B-9607-46D9-AAD6-815AECBA5B6B";
shapes = (
{
attr = {
fillColor = (0,255);
lineCapEnd = "1";
lineCapStart = "2";
strokeHeight = 120;
strokePos = "0";
strokeWidth = 120;
};
closed = 0;
nodes = (
(1267,0,l),
(185,1,l)
);
},
{
attr = {
lineCapEnd = "1";
lineCapStart = "1";
strokeHeight = 120;
strokePos = "0";
strokeWidth = 120;
};
closed = 0;
nodes = (
(1152,898,l),
(1152,1107,o),
(983,1276,o),
(774,1276,cs),
(566,1276,o),
(397,1107,o),
(397,898,c)
);
},
{
attr = {
fillColor = (0,255);
lineCapEnd = 1;
lineCapStart = 1;
strokeHeight = 120;
strokeWidth = 120;
};
closed = 0;
nodes = (
(567,483,l),
(185,483,l)
);
}
);
width = 1398;
},
{
layerId = "FF87E3F2-B049-41CB-BF2F-09DB15105515";
width = 600;
}
);
metricLeft = asterisk;
metricRight = asterisk;
unicode = 163;
},
{
color = 8;
glyphname = yen;
lastChange = "2022-05-29 23:17:55 +0000";
layers = (
{
layerId = m01;
width = 600;
},
{
layerId = "19FA402B-9607-46D9-AAD6-815AECBA5B6B";
shapes = (
{
attr = {
fillColor = (0,255);
lineCapEnd = "1";
lineCapStart = "1";
strokeHeight = 120;
strokeWidth = 120;
};
closed = 0;
nodes = (
(998,523,l),
(260,523,l)
);
},
{
attr = {
fillColor = (0,255);
lineCapEnd = "1";
lineCapStart = "1";
strokeHeight = 120;
strokeWidth = 120;
};
closed = 0;
nodes = (
(998,263,l),
(260,263,l)
);
},
{
attr = {
fillColor = (0,255);
lineCapEnd = "1";
lineCapStart = "2";
strokeHeight = 120;
strokeWidth = 120;
};
closed = 0;
nodes = (
(93,1382,l),
(394,1068,l)
);
},
{
attr = {
fillColor = (0,255);
lineCapEnd = "2";
lineCapStart = "1";
strokeHeight = 120;
strokeWidth = 120;
};
closed = 0;
nodes = (
(629,823,l),
(1165,1383,l)
);
}
);
width = 1258;
},
{
layerId = "FF87E3F2-B049-41CB-BF2F-09DB15105515";
width = 600;
}
);
metricLeft = Y;
metricRight = Y;
unicode = 165;
},
{
color = 8;
glyphname = plus;
lastChange = "2022-05-29 23:17:55 +0000";
layers = (
{
layerId = m01;
width = 600;
},
{
layerId = "19FA402B-9607-46D9-AAD6-815AECBA5B6B";
shapes = (
{
attr = {
lineCapEnd = "2";
lineCapStart = "2";
strokeHeight = 120;
strokeWidth = 120;
};
closed = 0;
nodes = (
(504,1138,l),
(504,263,l)
);
},
{
attr = {
lineCapEnd = "2";
lineCapStart = "2";
strokeHeight = 120;
strokeWidth = 120;
};
closed = 0;
nodes = (
(942,700,l),
(679,700,l)
);
},
{
attr = {
lineCapEnd = "2";
lineCapStart = "2";
strokeHeight = 120;
strokeWidth = 120;
};
closed = 0;
nodes = (
(329,700,l),
(66,700,l)
);
}
);
width = 1007;
},
{
layerId = "FF87E3F2-B049-41CB-BF2F-09DB15105515";
width = 600;
}
);
unicode = 43;
},
{
color = 8;
glyphname = minus;
lastChange = "2022-05-29 23:17:55 +0000";
layers = (
{
layerId = m01;
width = 600;
},
{
layerId = "19FA402B-9607-46D9-AAD6-815AECBA5B6B";
shapes = (
{
attr = {
lineCapEnd = "2";
lineCapStart = "2";
strokeHeight = 120;
strokeWidth = 120;
};
closed = 0;
nodes = (
(941,701,l),
(66,701,l)
);
}
);
width = 1007;
},
{
layerId = "FF87E3F2-B049-41CB-BF2F-09DB15105515";
width = 600;
}
);
unicode = 8722;
},
{
color = 8;
glyphname = multiply;
lastChange = "2022-05-29 23:17:55 +0000";
layers = (
{
layerId = m01;
width = 600;
},
{
layerId = "19FA402B-9607-46D9-AAD6-815AECBA5B6B";
shapes = (
{
attr = {
lineCapEnd = "2";
lineCapStart = "2";
strokeHeight = 120;
strokeWidth = 120;
};
closed = 0;
nodes = (
(860,1057,l),
(148,344,l)
);
},
{
attr = {
lineCapEnd = "2";
lineCapStart = "2";
strokeHeight = 120;
strokeWidth = 120;
};
closed = 0;
nodes = (
(860,344,l),
(627,576,l)
);
},
{
attr = {
lineCapEnd = "2";
lineCapStart = "2";
strokeHeight = 120;
strokeWidth = 120;
};
closed = 0;
nodes = (
(380,825,l),
(147,1057,l)
);
}
);
width = 1007;
},
{
layerId = "FF87E3F2-B049-41CB-BF2F-09DB15105515";
width = 600;
}
);
unicode = 215;
},
{
color = 8;
glyphname = divide;
lastChange = "2022-05-29 23:17:55 +0000";
layers = (
{
layerId = m01;
width = 600;
},
{
layerId = "19FA402B-9607-46D9-AAD6-815AECBA5B6B";
shapes = (
{
attr = {
lineCapEnd = "2";
lineCapStart = "2";
strokeHeight = 120;
strokeWidth = 120;
};
closed = 0;
nodes = (
(941,701,l),
(66,701,l)
);
},
{
closed = 1;
nodes = (
(545,963,o),
(579,997,o),
(579,1038,cs),
(579,1079,o),
(545,1113,o),
(504,1113,cs),
(463,1113,o),
(429,1079,o),
(429,1038,cs),
(429,997,o),
(463,963,o),
(504,963,cs)
);
},
{
closed = 1;
nodes = (
(545,287,o),
(579,321,o),
(579,362,cs),
(579,403,o),
(545,437,o),
(504,437,cs),
(463,437,o),
(429,403,o),
(429,362,cs),
(429,321,o),
(463,287,o),
(504,287,cs)
);
}
);
width = 1007;
},
{
layerId = "FF87E3F2-B049-41CB-BF2F-09DB15105515";
width = 600;
}
);
unicode = 247;
},
{
color = 8;
glyphname = equal;
lastChange = "2022-05-29 23:17:55 +0000";
layers = (
{
layerId = m01;
width = 600;
},
{
layerId = "19FA402B-9607-46D9-AAD6-815AECBA5B6B";
shapes = (
{
attr = {
lineCapEnd = 2;
lineCapStart = 2;
strokeHeight = 120;
strokeWidth = 120;
};
closed = 0;
nodes = (
(66,945,l),
(941,945,l)
);
},
{
attr = {
lineCapEnd = 2;
lineCapStart = 2;
strokeHeight = 120;
strokeWidth = 120;
};
closed = 0;
nodes = (
(66,455,l),
(941,455,l)
);
}
);
width = 1007;
},
{
layerId = "FF87E3F2-B049-41CB-BF2F-09DB15105515";
width = 600;
}
);
unicode = 61;
},
{
color = 8;
glyphname = notequal;
lastChange = "2022-05-29 23:17:55 +0000";
layers = (
{
layerId = m01;
width = 600;
},
{
layerId = "19FA402B-9607-46D9-AAD6-815AECBA5B6B";
shapes = (
{
attr = {
identifier = ID0x600002432140;
lineCapEnd = "2";
lineCapStart = "2";
strokeHeight = 120;
strokeWidth = 120;
};
closed = 0;
nodes = (
(808,1324,l),
(199,76,l)
);
},
{
attr = {
identifier = ID0x600002432140;
lineCapEnd = "2";
lineCapStart = "2";
strokeHeight = 120;
strokeWidth = 120;
};
closed = 0;
nodes = (
(66,944,l),
(446,944,l)
);
},
{
attr = {
identifier = ID0x600002432140;
lineCapEnd = "2";
lineCapStart = "2";
strokeHeight = 120;
strokeWidth = 120;
};
closed = 0;
nodes = (
(796,944,l),
(941,944,l)
);
},
{
attr = {
identifier = ID0x600002432140;
lineCapEnd = "2";
lineCapStart = "2";
strokeHeight = 120;
strokeWidth = 120;
};
closed = 0;
nodes = (
(941,455,l),
(561,455,l)
);
},
{
attr = {
identifier = ID0x600002432140;
lineCapEnd = "2";
lineCapStart = "2";
strokeHeight = 120;
strokeWidth = 120;
};
closed = 0;
nodes = (
(211,455,l),
(66,455,l)
);
}
);
width = 1007;
},
{
layerId = "FF87E3F2-B049-41CB-BF2F-09DB15105515";
width = 600;
}
);
unicode = 8800;
},
{
color = 8;
glyphname = greater;
lastChange = "2022-05-29 23:17:55 +0000";
layers = (
{
layerId = m01;
width = 600;
},
{
layerId = "19FA402B-9607-46D9-AAD6-815AECBA5B6B";
shapes = (
{
attr = {
fillColor = (0,255);
lineCapEnd = "2";
lineCapStart = "2";
strokeHeight = 120;
strokeWidth = 120;
};
closed = 0;
nodes = (
(136,209,l),
(1163,696,l)
);
},
{
attr = {
fillColor = (0,255);
lineCapEnd = "2";
lineCapStart = "2";
strokeHeight = 120;
strokeWidth = 120;
};
closed = 0;
nodes = (
(136,1191,l),
(658,947,l)
);
}
);
width = 1299;
},
{
layerId = "FF87E3F2-B049-41CB-BF2F-09DB15105515";
width = 600;
}
);
metricLeft = asterisk;
metricRight = asterisk;
unicode = 62;
},
{
color = 8;
glyphname = less;
lastChange = "2022-05-29 23:17:55 +0000";
layers = (
{
layerId = m01;
width = 600;
},
{
layerId = "19FA402B-9607-46D9-AAD6-815AECBA5B6B";
shapes = (
{
attr = {
fillColor = (0,255);
lineCapEnd = "2";
lineCapStart = "2";
strokeHeight = 120;
strokeWidth = 120;
};
closed = 0;
nodes = (
(136,704,l),
(1163,1191,l)
);
},
{
attr = {
fillColor = (0,255);
lineCapEnd = "2";
lineCapStart = "2";
strokeHeight = 120;
strokeWidth = 120;
};
closed = 0;
nodes = (
(641,453,l),
(1163,209,l)
);
}
);
width = 1299;
},
{
layerId = "FF87E3F2-B049-41CB-BF2F-09DB15105515";
width = 600;
}
);
metricLeft = asterisk;
metricRight = asterisk;
unicode = 60;
},
{
color = 8;
glyphname = greaterequal;
lastChange = "2022-05-29 23:17:55 +0000";
layers = (
{
layerId = m01;
width = 600;
},
{
layerId = "19FA402B-9607-46D9-AAD6-815AECBA5B6B";
shapes = (
{
attr = {
fillColor = (0,255);
lineCapEnd = "2";
lineCapStart = "2";
strokeHeight = 120;
strokeWidth = 120;
};
closed = 0;
nodes = (
(134,447,l),
(1161,816,l)
);
},
{
attr = {
fillColor = (0,255);
lineCapEnd = "2";
lineCapStart = "2";
strokeHeight = 120;
strokeWidth = 120;
};
closed = 0;
nodes = (
(134,1191,l),
(656,1006,l)
);
},
{
attr = {
lineCapEnd = "2";
lineCapStart = "2";
strokeHeight = 120;
strokeWidth = 120;
};
closed = 0;
nodes = (
(131,209,l),
(1161,209,l)
);
}
);
width = 1295;
},
{
layerId = "FF87E3F2-B049-41CB-BF2F-09DB15105515";
width = 600;
}
);
metricLeft = greater;
metricRight = greater;
unicode = 8805;
},
{
color = 8;
glyphname = lessequal;
lastChange = "2022-05-29 23:17:55 +0000";
layers = (
{
layerId = m01;
width = 600;
},
{
layerId = "19FA402B-9607-46D9-AAD6-815AECBA5B6B";
shapes = (
{
attr = {
fillColor = (0,255);
identifier = ID0x600002432920;
lineCapEnd = "2";
lineCapStart = "2";
strokeHeight = 120;
strokeWidth = 120;
};
closed = 0;
nodes = (
(1161,1191,l),
(134,822,l)
);
},
{
attr = {
fillColor = (0,255);
identifier = ID0x600002432920;
lineCapEnd = "2";
lineCapStart = "2";
strokeHeight = 120;
strokeWidth = 120;
};
closed = 0;
nodes = (
(1161,447,l),
(639,632,l)
);
},
{
attr = {
identifier = ID0x600002432920;
lineCapEnd = "2";
lineCapStart = "2";
strokeHeight = 120;
strokeWidth = 120;
};
closed = 0;
nodes = (
(134,209,l),
(1164,209,l)
);
}
);
width = 1295;
},
{
layerId = "FF87E3F2-B049-41CB-BF2F-09DB15105515";
width = 600;
}
);
metricLeft = less;
metricRight = less;
unicode = 8804;
},
{
color = 8;
glyphname = plusminus;
lastChange = "2022-05-29 23:17:55 +0000";
layers = (
{
layerId = m01;
width = 600;
},
{
layerId = "19FA402B-9607-46D9-AAD6-815AECBA5B6B";
shapes = (
{
attr = {
lineCapEnd = "2";
lineCapStart = "2";
strokeHeight = 120;
strokeWidth = 120;
};
closed = 0;
nodes = (
(504,1178,l),
(504,423,l)
);
},
{
attr = {
lineCapEnd = "2";
lineCapStart = "2";
strokeHeight = 120;
strokeWidth = 120;
};
closed = 0;
nodes = (
(942,800,l),
(679,800,l)
);
},
{
attr = {
lineCapEnd = "2";
lineCapStart = "2";
strokeHeight = 120;
strokeWidth = 120;
};
closed = 0;
nodes = (
(329,800,l),
(66,800,l)
);
},
{
attr = {
lineCapEnd = "2";
lineCapStart = "2";
strokeHeight = 120;
strokeWidth = 120;
};
closed = 0;
nodes = (
(941,277,l),
(66,277,l)
);
}
);
width = 1007;
},
{
layerId = "FF87E3F2-B049-41CB-BF2F-09DB15105515";
width = 600;
}
);
unicode = 177;
},
{
color = 8;
glyphname = approxequal;
lastChange = "2022-05-29 23:17:55 +0000";
layers = (
{
layerId = m01;
width = 600;
},
{
layerId = "19FA402B-9607-46D9-AAD6-815AECBA5B6B";
shapes = (
{
attr = {
lineCapEnd = "1";
lineCapStart = "1";
strokeHeight = 120;
strokeWidth = 120;
};
closed = 0;
nodes = (
(120,853,l),
(219,1000,o),
(357,996,o),
(503,900,cs),
(648,804,o),
(787,800,o),
(887,947,c)
);
},
{
attr = {
lineCapEnd = "1";
lineCapStart = "1";
strokeHeight = 120;
strokeWidth = 120;
};
closed = 0;
nodes = (
(120,453,l),
(219,600,o),
(357,596,o),
(503,500,cs),
(648,404,o),
(787,400,o),
(887,547,c)
);
}
);
width = 1007;
},
{
layerId = "FF87E3F2-B049-41CB-BF2F-09DB15105515";
width = 600;
}
);
unicode = 8776;
},
{
color = 8;
glyphname = asciitilde;
lastChange = "2022-05-29 23:17:55 +0000";
layers = (
{
layerId = m01;
width = 600;
},
{
layerId = "19FA402B-9607-46D9-AAD6-815AECBA5B6B";
shapes = (
{
attr = {
lineCapEnd = "1";
lineCapStart = "1";
strokeHeight = 120;
strokeWidth = 120;
};
closed = 0;
nodes = (
(185,666,l),
(256,787,o),
(358,781,o),
(459,700,cs),
(560,619,o),
(662,613,o),
(733,734,c)
);
}
);
width = 918;
},
{
layerId = "FF87E3F2-B049-41CB-BF2F-09DB15105515";
width = 600;
}
);
metricLeft = asterisk;
metricRight = asterisk;
unicode = 126;
},
{
color = 8;
glyphname = logicalnot;
lastChange = "2022-05-29 23:17:55 +0000";
layers = (
{
layerId = m01;
width = 600;
},
{
layerId = "19FA402B-9607-46D9-AAD6-815AECBA5B6B";
shapes = (
{
attr = {
lineCapEnd = "2";
lineCapStart = "2";
strokeHeight = 120;
strokeWidth = 120;
};
closed = 0;
nodes = (
(66,830,l),
(921,830,l)
);
},
{
attr = {
lineCapEnd = 2;
strokeHeight = 120;
strokeWidth = 120;
};
closed = 0;
nodes = (
(867,824,l),
(867,370,l)
);
}
);
width = 1007;
},
{
layerId = "FF87E3F2-B049-41CB-BF2F-09DB15105515";
width = 600;
}
);
unicode = 172;
},
{
color = 8;
glyphname = asciicircum;
lastChange = "2022-05-29 23:17:55 +0000";
layers = (
{
layerId = m01;
width = 600;
},
{
layerId = "19FA402B-9607-46D9-AAD6-815AECBA5B6B";
shapes = (
{
attr = {
fillColor = (0,255);
lineCapEnd = "2";
lineCapStart = "2";
strokeHeight = 120;
strokeWidth = 120;
};
closed = 0;
nodes = (
(149,1027,l),
(469,1380,l)
);
},
{
attr = {
fillColor = (0,255);
lineCapEnd = "2";
lineCapStart = "2";
strokeHeight = 120;
strokeWidth = 120;
};
closed = 0;
nodes = (
(717,1027,l),
(397,1380,l)
);
}
);
width = 866;
},
{
layerId = "FF87E3F2-B049-41CB-BF2F-09DB15105515";
width = 600;
}
);
metricLeft = asterisk;
metricRight = asterisk;
unicode = 94;
},
{
color = 8;
glyphname = infinity;
lastChange = "2022-05-29 23:17:55 +0000";
layers = (
{
layerId = m01;
width = 600;
},
{
layerId = "19FA402B-9607-46D9-AAD6-815AECBA5B6B";
shapes = (
{
attr = {
lineCapEnd = "1";
lineCapStart = "1";
strokeHeight = 120;
strokeWidth = 120;
};
closed = 0;
nodes = (
(1431,275,l),
(1196,275,o),
(1006,466,o),
(1006,700,cs),
(1006,934,o),
(816,1125,o),
(581,1125,cs)
);
},
{
attr = {
lineCapEnd = "1";
lineCapStart = "1";
strokeHeight = 120;
strokePos = "0";
strokeWidth = 120;
};
closed = 0;
nodes = (
(245,703,l),
(245,517,o),
(396,366,o),
(581,366,c)
);
},
{
attr = {
lineCapEnd = "1";
lineCapStart = "1";
strokeHeight = 120;
strokePos = "0";
strokeWidth = 120;
};
closed = 0;
nodes = (
(1767,703,l),
(1767,889,o),
(1616,1040,o),
(1431,1040,c)
);
}
);
width = 2012;
},
{
layerId = "FF87E3F2-B049-41CB-BF2F-09DB15105515";
width = 600;
}
);
metricLeft = asterisk;
metricRight = asterisk;
unicode = 8734;
},
{
color = 8;
glyphname = integral;
lastChange = "2022-05-29 23:17:55 +0000";
layers = (
{
layerId = m01;
width = 600;
},
{
layerId = "19FA402B-9607-46D9-AAD6-815AECBA5B6B";
shapes = (
{
attr = {
fillColor = (0,255);
lineCapEnd = 2;
lineCapStart = 1;
strokeHeight = 120;
strokePos = "0";
strokeWidth = 120;
};
closed = 0;
nodes = (
(761,1480,l),
(635,1480,o),
(533,1378,o),
(533,1252,cs),
(533,888,l)
);
},
{
attr = {
fillColor = (0,255);
lineCapEnd = 2;
lineCapStart = "1";
strokeHeight = 120;
strokePos = "0";
strokeWidth = 120;
};
closed = 0;
nodes = (
(185,-80,l),
(311,-80,o),
(413,22,o),
(413,148,cs),
(413,512,l)
);
}
);
width = 946;
},
{
layerId = "FF87E3F2-B049-41CB-BF2F-09DB15105515";
width = 600;
}
);
metricLeft = asterisk;
metricRight = asterisk;
unicode = 8747;
},
{
color = 8;
glyphname = product;
lastChange = "2022-05-29 23:17:55 +0000";
layers = (
{
layerId = m01;
width = 3000;
},
{
layerId = "19FA402B-9607-46D9-AAD6-815AECBA5B6B";
shapes = (
{
attr = {
fillColor = (0,255);
identifier = ID0x60000ffd02a0;
lineCapEnd = 1;
lineCapStart = 1;
strokeHeight = 120;
strokeWidth = 120;
};
closed = 0;
nodes = (
(1141,60,l),
(1141,1340,l)
);
},
{
attr = {
fillColor = (0,255);
identifier = ID0x60000ffd02a0;
lineCapEnd = 2;
lineCapStart = 2;
strokeHeight = 120;
strokeWidth = 120;
};
closed = 0;
nodes = (
(185,1045,l),
(185,6,l)
);
},
{
attr = {
identifier = ID0x60000ffd02a0;
lineCapEnd = 3;
lineCapStart = 1;
strokeHeight = 120;
strokeWidth = 120;
};
closed = 0;
nodes = (
(185,1340,l),
(1081,1340,l)
);
}
);
width = 1326;
},
{
layerId = "FF87E3F2-B049-41CB-BF2F-09DB15105515";
width = 3000;
}
);
metricLeft = H;
metricRight = H;
unicode = 8719;
},
{
color = 8;
glyphname = summation;
lastChange = "2022-05-29 23:17:55 +0000";
layers = (
{
layerId = m01;
width = 2400;
},
{
layerId = "19FA402B-9607-46D9-AAD6-815AECBA5B6B";
shapes = (
{
attr = {
fillColor = (0,255);
lineCapEnd = "2";
lineCapStart = "2";
strokeHeight = 120;
strokeWidth = 120;
};
closed = 0;
nodes = (
(155,1375,l),
(685,681,l)
);
},
{
attr = {
fillColor = (0,255);
lineCapEnd = "2";
lineCapStart = "2";
strokeHeight = 120;
strokePos = 1;
strokeWidth = 120;
};
closed = 0;
nodes = (
(131,4,l),
(1225,4,l)
);
},
{
attr = {
fillColor = (0,255);
lineCapEnd = "2";
lineCapStart = "2";
strokeHeight = 120;
strokePos = 0;
strokeWidth = 120;
};
closed = 0;
nodes = (
(131,1396,l),
(1225,1396,l)
);
}
);
width = 1311;
},
{
layerId = "FF87E3F2-B049-41CB-BF2F-09DB15105515";
width = 600;
}
);
metricLeft = E;
metricRight = E;
unicode = 8721;
},
{
color = 8;
glyphname = radical;
lastChange = "2022-05-29 23:17:55 +0000";
layers = (
{
layerId = m01;
width = 600;
},
{
layerId = "19FA402B-9607-46D9-AAD6-815AECBA5B6B";
shapes = (
{
attr = {
fillColor = (0,255);
lineCapEnd = "2";
lineCapStart = "2";
strokeHeight = 120;
strokeWidth = 120;
};
closed = 0;
nodes = (
(439,12,l),
(160,544,l)
);
},
{
attr = {
fillColor = (0,255);
lineCapEnd = "2";
lineCapStart = "2";
strokeHeight = 120;
strokeWidth = 120;
};
closed = 0;
nodes = (
(698,956,l),
(399,12,l)
);
},
{
attr = {
fillColor = (0,255);
lineCapEnd = "2";
lineCapStart = "2";
strokeHeight = 120;
strokePos = "0";
strokeWidth = 120;
};
closed = 0;
nodes = (
(766,1400,l),
(1492,1400,l)
);
}
);
width = 1623;
},
{
layerId = "FF87E3F2-B049-41CB-BF2F-09DB15105515";
width = 600;
}
);
metricLeft = asterisk;
metricRight = asterisk;
unicode = 8730;
},
{
color = 8;
glyphname = micro;
lastChange = "2022-05-29 23:17:55 +0000";
layers = (
{
layerId = m01;
width = 600;
},
{
layerId = "19FA402B-9607-46D9-AAD6-815AECBA5B6B";
shapes = (
{
attr = {
fillColor = (0,255);
lineCapEnd = "2";
lineCapStart = "1";
strokeHeight = 120;
strokeWidth = 120;
};
closed = 0;
nodes = (
(185,100,l),
(185,-394,l)
);
},
{
attr = {
fillColor = (0,255);
lineCapEnd = "1";
lineCapStart = "2";
strokeHeight = 120;
strokeWidth = 120;
};
closed = 0;
nodes = (
(185,994,l),
(185,500,l)
);
},
{
attr = {
fillColor = (0,255);
lineCapEnd = "1";
lineCapStart = "2";
strokeHeight = 120;
strokePos = 1;
strokeWidth = 120;
};
closed = 0;
nodes = (
(1000,996,l),
(1000,502,ls),
(1000,293,o),
(831,124,o),
(623,124,c)
);
}
);
width = 1245;
},
{
layerId = "FF87E3F2-B049-41CB-BF2F-09DB15105515";
width = 600;
}
);
metricLeft = U;
metricRight = U;
unicode = 181;
},
{
color = 8;
glyphname = partialdiff;
lastChange = "2022-05-29 23:17:55 +0000";
layers = (
{
layerId = m01;
width = 600;
},
{
layerId = "19FA402B-9607-46D9-AAD6-815AECBA5B6B";
shapes = (
{
attr = {
fillColor = (0,255);
identifier = ID0x600002411f80;
lineCapEnd = 2;
lineCapStart = 1;
strokeHeight = 120;
strokeWidth = 120;
};
closed = 0;
nodes = (
(525,1340,l),
(694,1067,l)
);
},
{
attr = {
strokePos = 0;
strokeWidth = 120;
};
closed = 1;
nodes = (
(696,120,o),
(836,260,o),
(836,433,cs),
(836,607,o),
(696,747,o),
(523,747,cs),
(350,747,o),
(210,607,o),
(210,433,cs),
(210,260,o),
(350,120,o),
(523,120,cs)
);
}
);
width = 1046;
},
{
layerId = "FF87E3F2-B049-41CB-BF2F-09DB15105515";
width = 600;
}
);
metricLeft = O;
metricRight = O;
unicode = 8706;
},
{
color = 8;
glyphname = percent;
lastChange = "2022-05-29 23:17:55 +0000";
layers = (
{
layerId = m01;
width = 600;
},
{
layerId = "19FA402B-9607-46D9-AAD6-815AECBA5B6B";
shapes = (
{
attr = {
lineCapEnd = 2;
lineCapStart = 2;
strokeHeight = 120;
strokeWidth = 120;
};
closed = 0;
nodes = (
(260,16,l),
(1235,1384,l)
);
},
{
attr = {
lineCapEnd = 1;
lineCapStart = 1;
strokePos = 0;
strokeWidth = 120;
};
closed = 0;
nodes = (
(475,1280,l),
(348,1280,o),
(245,1177,o),
(245,1050,cs),
(245,923,o),
(348,820,o),
(475,820,c)
);
},
{
attr = {
lineCapEnd = "1";
lineCapStart = "1";
strokePos = "0";
strokeWidth = 120;
};
closed = 0;
nodes = (
(1020,120,l),
(1147,120,o),
(1250,223,o),
(1250,350,cs),
(1250,477,o),
(1147,580,o),
(1020,580,c)
);
}
);
width = 1495;
},
{
layerId = "FF87E3F2-B049-41CB-BF2F-09DB15105515";
width = 600;
}
);
metricLeft = asterisk;
metricRight = asterisk;
unicode = 37;
},
{
color = 8;
glyphname = perthousand;
lastChange = "2022-05-29 23:17:55 +0000";
layers = (
{
layerId = m01;
width = 600;
},
{
layerId = "19FA402B-9607-46D9-AAD6-815AECBA5B6B";
shapes = (
{
attr = {
lineCapEnd = "2";
lineCapStart = "2";
strokeHeight = 120;
strokeWidth = 120;
};
closed = 0;
nodes = (
(260,16,l),
(1235,1384,l)
);
},
{
attr = {
lineCapEnd = "1";
lineCapStart = "1";
strokePos = "0";
strokeWidth = 120;
};
closed = 0;
nodes = (
(475,1280,l),
(348,1280,o),
(245,1177,o),
(245,1050,cs),
(245,923,o),
(348,820,o),
(475,820,c)
);
},
{
attr = {
lineCapEnd = "1";
lineCapStart = "1";
strokePos = "0";
strokeWidth = 120;
};
closed = 0;
nodes = (
(1020,120,l),
(1147,120,o),
(1250,223,o),
(1250,350,cs),
(1250,477,o),
(1147,580,o),
(1020,580,c)
);
},
{
attr = {
lineCapEnd = "1";
lineCapStart = "1";
strokePos = "0";
strokeWidth = 120;
};
closed = 0;
nodes = (
(1520,120,l),
(1647,120,o),
(1750,223,o),
(1750,350,cs),
(1750,477,o),
(1647,580,o),
(1520,580,c)
);
}
);
width = 1995;
},
{
layerId = "FF87E3F2-B049-41CB-BF2F-09DB15105515";
width = 600;
}
);
metricLeft = asterisk;
metricRight = asterisk;
unicode = 8240;
},
{
color = 8;
glyphname = lozenge;
lastChange = "2022-05-29 23:17:55 +0000";
layers = (
{
layerId = m01;
width = 600;
},
{
layerId = "19FA402B-9607-46D9-AAD6-815AECBA5B6B";
shapes = (
{
attr = {
fillColor = (0,255);
lineCapEnd = "2";
lineCapStart = "2";
strokeHeight = 120;
strokeWidth = 120;
};
closed = 0;
nodes = (
(581,1386,l),
(157,698,l)
);
},
{
attr = {
fillColor = (0,255);
lineCapEnd = "2";
strokeHeight = 120;
strokeWidth = 120;
};
closed = 0;
nodes = (
(552,1341,l),
(823,881,l)
);
},
{
attr = {
fillColor = (0,255);
lineCapEnd = "2";
lineCapStart = "2";
strokeHeight = 120;
strokeWidth = 120;
};
closed = 0;
nodes = (
(520,14,l),
(944,702,l)
);
},
{
attr = {
fillColor = (0,255);
lineCapEnd = "2";
strokeHeight = 120;
strokeWidth = 120;
};
closed = 0;
nodes = (
(548,59,l),
(278,519,l)
);
}
);
width = 1101;
},
{
layerId = "FF87E3F2-B049-41CB-BF2F-09DB15105515";
width = 600;
}
);
metricLeft = asterisk;
metricRight = asterisk;
unicode = 9674;
},
{
color = 3;
glyphname = dieresiscomb;
lastChange = "2022-05-29 23:18:12 +0000";
layers = (
{
anchors = (
{
name = _top;
pos = (0,600);
},
{
name = top;
}
);
layerId = m01;
width = 1200;
},
{
anchors = (
{
name = _top;
pos = (0,1400);
},
{
name = top;
pos = (0,1744);
}
);
layerId = "19FA402B-9607-46D9-AAD6-815AECBA5B6B";
shapes = (
{
closed = 1;
nodes = (
(-139,1594,o),
(-105,1628,o),
(-105,1669,cs),
(-105,1710,o),
(-139,1744,o),
(-180,1744,cs),
(-221,1744,o),
(-255,1710,o),
(-255,1669,cs),
(-255,1628,o),
(-221,1594,o),
(-180,1594,cs)
);
},
{
closed = 1;
nodes = (
(221,1594,o),
(255,1628,o),
(255,1669,cs),
(255,1710,o),
(221,1744,o),
(180,1744,cs),
(139,1744,o),
(105,1710,o),
(105,1669,cs),
(105,1628,o),
(139,1594,o),
(180,1594,cs)
);
}
);
width = 0;
},
{
anchors = (
{
name = _top;
pos = (0,600);
},
{
name = top;
}
);
layerId = "FF87E3F2-B049-41CB-BF2F-09DB15105515";
width = 1200;
}
);
unicode = 776;
},
{
color = 3;
glyphname = dotaccentcomb;
lastChange = "2022-05-29 23:18:12 +0000";
layers = (
{
layerId = m01;
width = 1200;
},
{
anchors = (
{
name = _top;
pos = (0,1400);
},
{
name = top;
pos = (0,1744);
}
);
layerId = "19FA402B-9607-46D9-AAD6-815AECBA5B6B";
shapes = (
{
closed = 1;
nodes = (
(41,1594,o),
(75,1628,o),
(75,1669,cs),
(75,1710,o),
(41,1744,o),
(0,1744,cs),
(-41,1744,o),
(-75,1710,o),
(-75,1669,cs),
(-75,1628,o),
(-41,1594,o),
(0,1594,cs)
);
}
);
width = 0;
},
{
layerId = "FF87E3F2-B049-41CB-BF2F-09DB15105515";
width = 1200;
}
);
unicode = 775;
},
{
color = 3;
glyphname = gravecomb;
lastChange = "2022-05-29 23:18:12 +0000";
layers = (
{
layerId = m01;
width = 1200;
},
{
anchors = (
{
name = _top;
pos = (0,1400);
},
{
name = top;
pos = (0,1830);
}
);
layerId = "19FA402B-9607-46D9-AAD6-815AECBA5B6B";
shapes = (
{
attr = {
fillColor = (0,255);
lineCapEnd = "2";
lineCapStart = "2";
strokeHeight = 100;
strokeWidth = 100;
};
closed = 0;
nodes = (
(36,1577,l),
(-324,1830,l)
);
}
);
width = 0;
},
{
layerId = "FF87E3F2-B049-41CB-BF2F-09DB15105515";
width = 1200;
}
);
unicode = 768;
},
{
color = 3;
glyphname = acutecomb;
lastChange = "2022-05-29 23:18:12 +0000";
layers = (
{
layerId = m01;
width = 1200;
},
{
anchors = (
{
name = _top;
pos = (0,1400);
},
{
name = top;
pos = (0,1830);
}
);
layerId = "19FA402B-9607-46D9-AAD6-815AECBA5B6B";
shapes = (
{
attr = {
fillColor = (0,255);
lineCapEnd = "2";
lineCapStart = "2";
strokeHeight = 100;
strokeWidth = 100;
};
closed = 0;
nodes = (
(-36,1577,l),
(324,1830,l)
);
}
);
width = 0;
},
{
layerId = "FF87E3F2-B049-41CB-BF2F-09DB15105515";
width = 1200;
}
);
unicode = 769;
},
{
color = 3;
glyphname = hungarumlautcomb;
lastChange = "2022-05-29 23:18:12 +0000";
layers = (
{
anchors = (
{
name = _top;
pos = (0,600);
},
{
name = top;
}
);
layerId = m01;
width = 1200;
},
{
anchors = (
{
name = _top;
pos = (127,1400);
},
{
name = top;
pos = (127,1849);
}
);
layerId = "19FA402B-9607-46D9-AAD6-815AECBA5B6B";
shapes = (
{
attr = {
fillColor = (0,255);
lineCapEnd = "2";
lineCapStart = "2";
strokeHeight = 100;
strokeWidth = 100;
};
closed = 0;
nodes = (
(-153,1577,l),
(107,1830,l)
);
},
{
attr = {
fillColor = (0,255);
lineCapEnd = "2";
lineCapStart = "2";
strokeHeight = 100;
strokeWidth = 100;
};
closed = 0;
nodes = (
(147,1577,l),
(407,1830,l)
);
}
);
width = 0;
},
{
anchors = (
{
name = _top;
pos = (0,600);
},
{
name = top;
}
);
layerId = "FF87E3F2-B049-41CB-BF2F-09DB15105515";
width = 1200;
}
);
unicode = 779;
},
{
color = 3;
glyphname = circumflexcomb;
lastChange = "2022-05-29 23:18:12 +0000";
layers = (
{
layerId = m01;
width = 1200;
},
{
anchors = (
{
name = _top;
pos = (0,1400);
},
{
name = top;
pos = (0,1850);
}
);
layerId = "19FA402B-9607-46D9-AAD6-815AECBA5B6B";
shapes = (
{
attr = {
fillColor = (0,255);
lineCapStart = "2";
strokeHeight = 100;
strokeWidth = 100;
};
closed = 0;
nodes = (
(235,1577,l),
(2,1797,l)
);
},
{
attr = {
fillColor = (0,255);
lineCapEnd = "2";
lineCapStart = "2";
strokeHeight = 100;
strokeWidth = 100;
};
closed = 0;
nodes = (
(-235,1577,l),
(32,1830,l)
);
}
);
width = 0;
},
{
layerId = "FF87E3F2-B049-41CB-BF2F-09DB15105515";
width = 1200;
}
);
unicode = 770;
},
{
color = 3;
glyphname = caroncomb;
lastChange = "2022-05-30 00:36:41 +0000";
layers = (
{
layerId = m01;
width = 1200;
},
{
anchors = (
{
name = _top;
pos = (0,1400);
},
{
name = top;
pos = (0,1830);
}
);
layerId = "19FA402B-9607-46D9-AAD6-815AECBA5B6B";
shapes = (
{
attr = {
fillColor = (0,255);
lineCapStart = "2";
strokeHeight = 100;
strokeWidth = 100;
};
closed = 0;
nodes = (
(-235,1810,l),
(-2,1590,l)
);
},
{
attr = {
fillColor = (0,255);
lineCapEnd = "2";
lineCapStart = "2";
strokeHeight = 100;
strokeWidth = 100;
};
closed = 0;
nodes = (
(235,1810,l),
(-32,1557,l)
);
}
);
width = 0;
},
{
layerId = "FF87E3F2-B049-41CB-BF2F-09DB15105515";
width = 1200;
}
);
unicode = 780;
},
{
color = 3;
glyphname = brevecomb;
lastChange = "2022-05-29 23:18:12 +0000";
layers = (
{
anchors = (
{
name = _top;
pos = (0,600);
},
{
name = top;
}
);
layerId = m01;
width = 1200;
},
{
anchors = (
{
name = _top;
pos = (0,1400);
},
{
name = top;
pos = (0,1823);
}
);
layerId = "19FA402B-9607-46D9-AAD6-815AECBA5B6B";
shapes = (
{
attr = {
lineCapEnd = "2";
lineCapStart = "2";
strokeHeight = 100;
strokeWidth = 100;
};
closed = 0;
nodes = (
(-245,1818,l),
(-245,1682,o),
(-136,1573,o),
(1,1573,cs),
(136,1573,o),
(245,1682,o),
(245,1818,c)
);
}
);
width = 0;
},
{
anchors = (
{
name = _top;
pos = (0,600);
},
{
name = top;
}
);
layerId = "FF87E3F2-B049-41CB-BF2F-09DB15105515";
width = 1200;
}
);
unicode = 774;
},
{
color = 3;
glyphname = ringcomb;
lastChange = "2022-05-29 23:18:12 +0000";
layers = (
{
layerId = m01;
width = 1200;
},
{
anchors = (
{
name = _top;
pos = (0,1400);
},
{
name = top;
pos = (0,1880);
}
);
layerId = "19FA402B-9607-46D9-AAD6-815AECBA5B6B";
shapes = (
{
attr = {
strokeHeight = 100;
strokePos = 0;
strokeWidth = 100;
};
closed = 1;
nodes = (
(45,1610,o),
(83,1648,o),
(83,1695,cs),
(83,1742,o),
(45,1780,o),
(-2,1780,cs),
(-49,1780,o),
(-87,1742,o),
(-87,1695,cs),
(-87,1648,o),
(-49,1610,o),
(-2,1610,cs)
);
}
);
width = 0;
},
{
layerId = "FF87E3F2-B049-41CB-BF2F-09DB15105515";
width = 1200;
}
);
unicode = 778;
},
{
color = 3;
glyphname = tildecomb;
lastChange = "2022-05-29 23:18:12 +0000";
layers = (
{
layerId = m01;
width = 1200;
},
{
anchors = (
{
name = _top;
pos = (0,1400);
},
{
name = top;
pos = (0,1740);
}
);
layerId = "19FA402B-9607-46D9-AAD6-815AECBA5B6B";
shapes = (
{
attr = {
lineCapEnd = "1";
lineCapStart = "1";
strokeHeight = 100;
strokeWidth = 100;
};
closed = 0;
nodes = (
(-228,1642,l),
(-192,1728,o),
(-99,1760,o),
(0,1676,cs),
(99,1592,o),
(192,1624,o),
(228,1710,c)
);
}
);
width = 0;
},
{
layerId = "FF87E3F2-B049-41CB-BF2F-09DB15105515";
width = 1200;
}
);
unicode = 771;
},
{
color = 3;
glyphname = macroncomb;
lastChange = "2022-05-30 00:38:02 +0000";
layers = (
{
anchors = (
{
name = _top;
pos = (0,600);
},
{
name = top;
}
);
layerId = m01;
width = 1200;
},
{
anchors = (
{
name = _top;
pos = (0,1400);
},
{
name = top;
pos = (0,1722);
}
);
layerId = "19FA402B-9607-46D9-AAD6-815AECBA5B6B";
shapes = (
{
attr = {
fillColor = (0,255);
lineCapEnd = "2";
lineCapStart = "2";
strokeHeight = 100;
strokeWidth = 100;
};
closed = 0;
nodes = (
(268,1672,l),
(-268,1672,l)
);
}
);
width = 0;
},
{
anchors = (
{
name = _top;
pos = (0,600);
},
{
name = top;
}
);
layerId = "FF87E3F2-B049-41CB-BF2F-09DB15105515";
width = 1200;
}
);
unicode = 772;
},
{
color = 3;
glyphname = cedillacomb;
lastChange = "2022-05-29 23:18:12 +0000";
layers = (
{
anchors = (
{
name = _bottom;
},
{
name = bottom;
}
);
layerId = m01;
width = 1200;
},
{
anchors = (
{
name = _bottom;
},
{
name = bottom;
pos = (0,-383);
}
);
layerId = "19FA402B-9607-46D9-AAD6-815AECBA5B6B";
shapes = (
{
attr = {
lineCapEnd = 2;
lineCapStart = 2;
strokeHeight = 120;
strokeWidth = 120;
};
closed = 0;
nodes = (
(78,-84,l),
(-19,-374,l)
);
}
);
width = 0;
},
{
anchors = (
{
name = _bottom;
},
{
name = bottom;
}
);
layerId = "FF87E3F2-B049-41CB-BF2F-09DB15105515";
width = 1200;
}
);
unicode = 807;
},
{
color = 3;
glyphname = ogonekcomb;
lastChange = "2022-05-30 00:51:19 +0000";
layers = (
{
anchors = (
{
name = _ogonek;
}
);
layerId = m01;
width = 1200;
},
{
anchors = (
{
name = _ogonek;
pos = (64,0);
}
);
layerId = "19FA402B-9607-46D9-AAD6-815AECBA5B6B";
shapes = (
{
attr = {
lineCapEnd = "2";
lineCapStart = "2";
strokeHeight = 120;
strokeWidth = 120;
};
closed = 0;
nodes = (
(-84,-292,l),
(84,110,l)
);
}
);
width = 0;
},
{
anchors = (
{
name = _ogonek;
}
);
layerId = "FF87E3F2-B049-41CB-BF2F-09DB15105515";
width = 1200;
}
);
unicode = 808;
},
{
color = 3;
glyphname = grave;
lastChange = "2022-05-29 23:18:12 +0000";
layers = (
{
layerId = m01;
width = 600;
},
{
layerId = "19FA402B-9607-46D9-AAD6-815AECBA5B6B";
shapes = (
{
attr = {
fillColor = (0,255);
lineCapEnd = "2";
lineCapStart = "2";
strokeHeight = 120;
strokeWidth = 120;
};
closed = 0;
nodes = (
(404,1027,l),
(84,1380,l)
);
}
);
width = 488;
},
{
layerId = "FF87E3F2-B049-41CB-BF2F-09DB15105515";
width = 600;
}
);
unicode = 96;
},
